<mxfile host="Electron" agent="Mozilla/5.0 (Windows NT 10.0; Win64; x64) AppleWebKit/537.36 (KHTML, like Gecko) draw.io/27.0.9 Chrome/134.0.6998.205 Electron/35.4.0 Safari/537.36" version="27.0.9">
  <diagram name="페이지-1" id="rKq2VHxCK3A95S-PkQ2-">
    <mxGraphModel dx="9232" dy="3171" grid="1" gridSize="10" guides="1" tooltips="1" connect="1" arrows="1" fold="1" page="1" pageScale="1" pageWidth="827" pageHeight="1169" math="0" shadow="0">
      <root>
        <mxCell id="0" />
        <mxCell id="1" parent="0" />
        <mxCell id="e8_aewo6IwP7DNfwToR0-1" value="" style="rounded=0;whiteSpace=wrap;html=1;" parent="1" vertex="1">
          <mxGeometry x="-5145" y="-460" width="13270" height="5940" as="geometry" />
        </mxCell>
        <mxCell id="5_nV4KObTGlKEwLC51VY-1" value="" style="rounded=0;whiteSpace=wrap;html=1;" parent="1" vertex="1">
          <mxGeometry x="-2095" y="2630" width="1310" height="1000" as="geometry" />
        </mxCell>
        <mxCell id="5_nV4KObTGlKEwLC51VY-2" value="SHIFT_REG_128" style="rounded=0;whiteSpace=wrap;html=1;fontSize=18;" parent="1" vertex="1">
          <mxGeometry x="-1585" y="2740" width="180" height="230" as="geometry" />
        </mxCell>
        <mxCell id="5_nV4KObTGlKEwLC51VY-3" value="SHIFT_REG_256_SUB" style="rounded=0;whiteSpace=wrap;html=1;fontSize=18;" parent="1" vertex="1">
          <mxGeometry x="-2045" y="3045" width="180" height="230" as="geometry" />
        </mxCell>
        <mxCell id="5_nV4KObTGlKEwLC51VY-4" value="16IN_MUX" style="rounded=0;whiteSpace=wrap;html=1;fontSize=18;" parent="1" vertex="1">
          <mxGeometry x="-1815" y="2740" width="110" height="530" as="geometry" />
        </mxCell>
        <mxCell id="5_nV4KObTGlKEwLC51VY-5" value="BF2I" style="rounded=0;whiteSpace=wrap;html=1;fontSize=18;" parent="1" vertex="1">
          <mxGeometry x="-1315" y="2745" width="110" height="530" as="geometry" />
        </mxCell>
        <mxCell id="5_nV4KObTGlKEwLC51VY-6" value="MUL_FAC8_1" style="rounded=0;whiteSpace=wrap;html=1;fontSize=18;" parent="1" vertex="1">
          <mxGeometry x="-1025" y="2740" width="110" height="530" as="geometry" />
        </mxCell>
        <mxCell id="5_nV4KObTGlKEwLC51VY-7" value="" style="rounded=0;whiteSpace=wrap;html=1;" parent="1" vertex="1">
          <mxGeometry x="-2065" y="3350" width="1250" height="270" as="geometry" />
        </mxCell>
        <mxCell id="5_nV4KObTGlKEwLC51VY-32" style="edgeStyle=orthogonalEdgeStyle;rounded=0;orthogonalLoop=1;jettySize=auto;html=1;exitX=1;exitY=0.5;exitDx=0;exitDy=0;entryX=0;entryY=0.5;entryDx=0;entryDy=0;" parent="1" source="5_nV4KObTGlKEwLC51VY-8" target="5_nV4KObTGlKEwLC51VY-10" edge="1">
          <mxGeometry relative="1" as="geometry">
            <mxPoint x="-1365" y="3485" as="targetPoint" />
            <Array as="points">
              <mxPoint x="-1795" y="3485" />
              <mxPoint x="-1795" y="3590" />
              <mxPoint x="-1245" y="3590" />
              <mxPoint x="-1245" y="3485" />
            </Array>
          </mxGeometry>
        </mxCell>
        <mxCell id="5_nV4KObTGlKEwLC51VY-8" value="CNT_4B_FSM" style="rounded=0;whiteSpace=wrap;html=1;fontSize=18;" parent="1" vertex="1">
          <mxGeometry x="-1985" y="3407.5" width="150" height="155" as="geometry" />
        </mxCell>
        <mxCell id="5_nV4KObTGlKEwLC51VY-36" style="edgeStyle=orthogonalEdgeStyle;rounded=0;orthogonalLoop=1;jettySize=auto;html=1;exitX=0.75;exitY=0;exitDx=0;exitDy=0;entryX=0.75;entryY=1;entryDx=0;entryDy=0;" parent="1" source="5_nV4KObTGlKEwLC51VY-10" target="5_nV4KObTGlKEwLC51VY-6" edge="1">
          <mxGeometry relative="1" as="geometry" />
        </mxCell>
        <mxCell id="5_nV4KObTGlKEwLC51VY-38" value="SEL" style="edgeLabel;html=1;align=center;verticalAlign=middle;resizable=0;points=[];" parent="5_nV4KObTGlKEwLC51VY-36" vertex="1" connectable="0">
          <mxGeometry x="0.1564" y="-2" relative="1" as="geometry">
            <mxPoint x="1" y="1" as="offset" />
          </mxGeometry>
        </mxCell>
        <mxCell id="5_nV4KObTGlKEwLC51VY-39" style="edgeStyle=orthogonalEdgeStyle;rounded=0;orthogonalLoop=1;jettySize=auto;html=1;exitX=1;exitY=0.5;exitDx=0;exitDy=0;" parent="1" source="5_nV4KObTGlKEwLC51VY-10" edge="1">
          <mxGeometry relative="1" as="geometry">
            <mxPoint x="-675" y="3485" as="targetPoint" />
          </mxGeometry>
        </mxCell>
        <mxCell id="5_nV4KObTGlKEwLC51VY-40" value="alert_02" style="edgeLabel;html=1;align=center;verticalAlign=middle;resizable=0;points=[];" parent="5_nV4KObTGlKEwLC51VY-39" vertex="1" connectable="0">
          <mxGeometry x="0.5404" y="6" relative="1" as="geometry">
            <mxPoint as="offset" />
          </mxGeometry>
        </mxCell>
        <mxCell id="5_nV4KObTGlKEwLC51VY-10" value="FAC8_1_CTRL" style="rounded=0;whiteSpace=wrap;html=1;fontSize=18;" parent="1" vertex="1">
          <mxGeometry x="-1055" y="3407.5" width="150" height="155" as="geometry" />
        </mxCell>
        <mxCell id="5_nV4KObTGlKEwLC51VY-11" value="" style="endArrow=classic;html=1;rounded=0;strokeWidth=2;" parent="1" edge="1">
          <mxGeometry width="50" height="50" relative="1" as="geometry">
            <mxPoint x="-2255" y="3110" as="sourcePoint" />
            <mxPoint x="-2045" y="3110" as="targetPoint" />
          </mxGeometry>
        </mxCell>
        <mxCell id="5_nV4KObTGlKEwLC51VY-12" value="" style="endArrow=classic;html=1;rounded=0;strokeWidth=2;" parent="1" edge="1">
          <mxGeometry width="50" height="50" relative="1" as="geometry">
            <mxPoint x="-2255" y="3190" as="sourcePoint" />
            <mxPoint x="-2045" y="3190" as="targetPoint" />
          </mxGeometry>
        </mxCell>
        <mxCell id="5_nV4KObTGlKEwLC51VY-13" value="dout_R_sub_00[0:15][9:0]" style="text;html=1;align=center;verticalAlign=middle;whiteSpace=wrap;rounded=0;" parent="1" vertex="1">
          <mxGeometry x="-2265" y="3070" width="170" height="30" as="geometry" />
        </mxCell>
        <mxCell id="5_nV4KObTGlKEwLC51VY-14" value="dout_Q_sub_00[0:15][9:0]" style="text;html=1;align=center;verticalAlign=middle;whiteSpace=wrap;rounded=0;" parent="1" vertex="1">
          <mxGeometry x="-2265" y="3145" width="170" height="30" as="geometry" />
        </mxCell>
        <mxCell id="5_nV4KObTGlKEwLC51VY-15" value="" style="endArrow=classic;html=1;rounded=0;strokeWidth=2;entryX=0.009;entryY=0.149;entryDx=0;entryDy=0;entryPerimeter=0;" parent="1" target="5_nV4KObTGlKEwLC51VY-4" edge="1">
          <mxGeometry width="50" height="50" relative="1" as="geometry">
            <mxPoint x="-2280" y="2820" as="sourcePoint" />
            <mxPoint x="-2070" y="2820" as="targetPoint" />
          </mxGeometry>
        </mxCell>
        <mxCell id="5_nV4KObTGlKEwLC51VY-16" value="" style="endArrow=classic;html=1;rounded=0;strokeWidth=2;entryX=0.009;entryY=0.296;entryDx=0;entryDy=0;entryPerimeter=0;" parent="1" target="5_nV4KObTGlKEwLC51VY-4" edge="1">
          <mxGeometry width="50" height="50" relative="1" as="geometry">
            <mxPoint x="-2280" y="2900" as="sourcePoint" />
            <mxPoint x="-2070" y="2900" as="targetPoint" />
          </mxGeometry>
        </mxCell>
        <mxCell id="5_nV4KObTGlKEwLC51VY-17" value="dout_R_add_00[0:15][9:0]" style="text;html=1;align=center;verticalAlign=middle;whiteSpace=wrap;rounded=0;" parent="1" vertex="1">
          <mxGeometry x="-2290" y="2780" width="170" height="30" as="geometry" />
        </mxCell>
        <mxCell id="5_nV4KObTGlKEwLC51VY-18" value="dout_Q_add_00[0:15][9:0]" style="text;html=1;align=center;verticalAlign=middle;whiteSpace=wrap;rounded=0;" parent="1" vertex="1">
          <mxGeometry x="-2290" y="2855" width="170" height="30" as="geometry" />
        </mxCell>
        <mxCell id="5_nV4KObTGlKEwLC51VY-19" style="edgeStyle=orthogonalEdgeStyle;rounded=0;orthogonalLoop=1;jettySize=auto;html=1;exitX=1;exitY=0.25;exitDx=0;exitDy=0;entryX=0;entryY=0.685;entryDx=0;entryDy=0;entryPerimeter=0;" parent="1" source="5_nV4KObTGlKEwLC51VY-3" target="5_nV4KObTGlKEwLC51VY-4" edge="1">
          <mxGeometry relative="1" as="geometry" />
        </mxCell>
        <mxCell id="5_nV4KObTGlKEwLC51VY-20" style="edgeStyle=orthogonalEdgeStyle;rounded=0;orthogonalLoop=1;jettySize=auto;html=1;entryX=0;entryY=0.791;entryDx=0;entryDy=0;entryPerimeter=0;" parent="1" source="5_nV4KObTGlKEwLC51VY-3" target="5_nV4KObTGlKEwLC51VY-4" edge="1">
          <mxGeometry relative="1" as="geometry" />
        </mxCell>
        <mxCell id="5_nV4KObTGlKEwLC51VY-31" style="edgeStyle=orthogonalEdgeStyle;rounded=0;orthogonalLoop=1;jettySize=auto;html=1;exitX=0.5;exitY=0;exitDx=0;exitDy=0;entryX=0.5;entryY=1;entryDx=0;entryDy=0;" parent="1" source="5_nV4KObTGlKEwLC51VY-23" target="5_nV4KObTGlKEwLC51VY-4" edge="1">
          <mxGeometry relative="1" as="geometry" />
        </mxCell>
        <mxCell id="5_nV4KObTGlKEwLC51VY-23" value="MUX_SEL_CTRL" style="rounded=0;whiteSpace=wrap;html=1;fontSize=18;" parent="1" vertex="1">
          <mxGeometry x="-1655" y="3407.5" width="150" height="155" as="geometry" />
        </mxCell>
        <mxCell id="5_nV4KObTGlKEwLC51VY-24" value="" style="endArrow=classic;html=1;rounded=0;entryX=0.02;entryY=0.59;entryDx=0;entryDy=0;entryPerimeter=0;" parent="1" source="5_nV4KObTGlKEwLC51VY-27" target="5_nV4KObTGlKEwLC51VY-8" edge="1">
          <mxGeometry width="50" height="50" relative="1" as="geometry">
            <mxPoint x="-2225" y="3500" as="sourcePoint" />
            <mxPoint x="-2095" y="3500" as="targetPoint" />
          </mxGeometry>
        </mxCell>
        <mxCell id="5_nV4KObTGlKEwLC51VY-25" value="alert_mod01" style="text;html=1;align=center;verticalAlign=middle;whiteSpace=wrap;rounded=0;" parent="1" vertex="1">
          <mxGeometry x="-2275" y="3450" width="170" height="30" as="geometry" />
        </mxCell>
        <mxCell id="5_nV4KObTGlKEwLC51VY-26" value="" style="endArrow=classic;html=1;rounded=0;" parent="1" target="5_nV4KObTGlKEwLC51VY-27" edge="1">
          <mxGeometry width="50" height="50" relative="1" as="geometry">
            <mxPoint x="-2225" y="3500" as="sourcePoint" />
            <mxPoint x="-2095" y="3500" as="targetPoint" />
          </mxGeometry>
        </mxCell>
        <mxCell id="5_nV4KObTGlKEwLC51VY-28" style="edgeStyle=orthogonalEdgeStyle;rounded=0;orthogonalLoop=1;jettySize=auto;html=1;entryX=0.5;entryY=1;entryDx=0;entryDy=0;" parent="1" source="5_nV4KObTGlKEwLC51VY-27" target="5_nV4KObTGlKEwLC51VY-23" edge="1">
          <mxGeometry relative="1" as="geometry">
            <Array as="points">
              <mxPoint x="-2155" y="3700" />
              <mxPoint x="-1580" y="3700" />
            </Array>
          </mxGeometry>
        </mxCell>
        <mxCell id="5_nV4KObTGlKEwLC51VY-27" value="" style="shape=waypoint;sketch=0;fillStyle=solid;size=6;pointerEvents=1;points=[];fillColor=none;resizable=0;rotatable=0;perimeter=centerPerimeter;snapToPoint=1;" parent="1" vertex="1">
          <mxGeometry x="-2165" y="3490" width="20" height="20" as="geometry" />
        </mxCell>
        <mxCell id="5_nV4KObTGlKEwLC51VY-35" style="edgeStyle=orthogonalEdgeStyle;rounded=0;orthogonalLoop=1;jettySize=auto;html=1;exitX=0.5;exitY=0;exitDx=0;exitDy=0;entryX=0.409;entryY=1.002;entryDx=0;entryDy=0;entryPerimeter=0;" parent="1" source="5_nV4KObTGlKEwLC51VY-10" target="5_nV4KObTGlKEwLC51VY-6" edge="1">
          <mxGeometry relative="1" as="geometry" />
        </mxCell>
        <mxCell id="5_nV4KObTGlKEwLC51VY-37" value="EN" style="edgeLabel;html=1;align=center;verticalAlign=middle;resizable=0;points=[];" parent="5_nV4KObTGlKEwLC51VY-35" vertex="1" connectable="0">
          <mxGeometry x="0.224" y="-2" relative="1" as="geometry">
            <mxPoint y="1" as="offset" />
          </mxGeometry>
        </mxCell>
        <mxCell id="5_nV4KObTGlKEwLC51VY-41" value="" style="shape=waypoint;sketch=0;fillStyle=solid;size=6;pointerEvents=1;points=[];fillColor=none;resizable=0;rotatable=0;perimeter=centerPerimeter;snapToPoint=1;" parent="1" vertex="1">
          <mxGeometry x="-1255" y="3475" width="20" height="20" as="geometry" />
        </mxCell>
        <mxCell id="5_nV4KObTGlKEwLC51VY-42" style="edgeStyle=orthogonalEdgeStyle;rounded=0;orthogonalLoop=1;jettySize=auto;html=1;entryX=0.636;entryY=0.998;entryDx=0;entryDy=0;entryPerimeter=0;" parent="1" source="5_nV4KObTGlKEwLC51VY-41" target="5_nV4KObTGlKEwLC51VY-5" edge="1">
          <mxGeometry relative="1" as="geometry" />
        </mxCell>
        <mxCell id="5_nV4KObTGlKEwLC51VY-43" value="" style="endArrow=classic;html=1;rounded=0;entryX=0;entryY=0.078;entryDx=0;entryDy=0;entryPerimeter=0;exitX=1.013;exitY=0.178;exitDx=0;exitDy=0;exitPerimeter=0;strokeWidth=6;" parent="1" edge="1">
          <mxGeometry width="50" height="50" relative="1" as="geometry">
            <mxPoint x="-911" y="2882" as="sourcePoint" />
            <mxPoint x="-624" y="2880.2" as="targetPoint" />
          </mxGeometry>
        </mxCell>
        <mxCell id="5_nV4KObTGlKEwLC51VY-44" value="dout_R_add_01[0:15][10:0]" style="text;html=1;align=center;verticalAlign=middle;whiteSpace=wrap;rounded=0;" parent="1" vertex="1">
          <mxGeometry x="-784" y="2840" width="150" height="30" as="geometry" />
        </mxCell>
        <mxCell id="5_nV4KObTGlKEwLC51VY-45" value="" style="endArrow=classic;html=1;rounded=0;entryX=0;entryY=0.078;entryDx=0;entryDy=0;entryPerimeter=0;exitX=1;exitY=0.265;exitDx=0;exitDy=0;exitPerimeter=0;strokeWidth=6;" parent="1" edge="1">
          <mxGeometry width="50" height="50" relative="1" as="geometry">
            <mxPoint x="-914" y="2937" as="sourcePoint" />
            <mxPoint x="-624" y="2940.2" as="targetPoint" />
          </mxGeometry>
        </mxCell>
        <mxCell id="5_nV4KObTGlKEwLC51VY-46" value="dout_R_sub_01[0:15][10:0]" style="text;html=1;align=center;verticalAlign=middle;whiteSpace=wrap;rounded=0;" parent="1" vertex="1">
          <mxGeometry x="-784" y="2900" width="150" height="30" as="geometry" />
        </mxCell>
        <mxCell id="5_nV4KObTGlKEwLC51VY-47" value="" style="endArrow=classic;html=1;rounded=0;entryX=0;entryY=0.078;entryDx=0;entryDy=0;entryPerimeter=0;exitX=1;exitY=0.365;exitDx=0;exitDy=0;exitPerimeter=0;strokeWidth=6;" parent="1" edge="1">
          <mxGeometry width="50" height="50" relative="1" as="geometry">
            <mxPoint x="-914" y="3000" as="sourcePoint" />
            <mxPoint x="-624" y="3000.2" as="targetPoint" />
          </mxGeometry>
        </mxCell>
        <mxCell id="5_nV4KObTGlKEwLC51VY-48" value="dout_Q_add_01[0:15][10:0]" style="text;html=1;align=center;verticalAlign=middle;whiteSpace=wrap;rounded=0;" parent="1" vertex="1">
          <mxGeometry x="-784" y="2960" width="150" height="30" as="geometry" />
        </mxCell>
        <mxCell id="5_nV4KObTGlKEwLC51VY-49" value="" style="endArrow=classic;html=1;rounded=0;entryX=0;entryY=0.078;entryDx=0;entryDy=0;entryPerimeter=0;exitX=0.996;exitY=0.459;exitDx=0;exitDy=0;exitPerimeter=0;strokeWidth=6;" parent="1" edge="1">
          <mxGeometry width="50" height="50" relative="1" as="geometry">
            <mxPoint x="-915" y="3059" as="sourcePoint" />
            <mxPoint x="-624" y="3060.2" as="targetPoint" />
          </mxGeometry>
        </mxCell>
        <mxCell id="5_nV4KObTGlKEwLC51VY-50" value="dout_Q_sub_01[0:15][10:0]" style="text;html=1;align=center;verticalAlign=middle;whiteSpace=wrap;rounded=0;" parent="1" vertex="1">
          <mxGeometry x="-784" y="3020" width="150" height="30" as="geometry" />
        </mxCell>
        <mxCell id="5_nV4KObTGlKEwLC51VY-51" value="&lt;b&gt;&lt;font style=&quot;font-size: 35px;&quot;&gt;MODULE0_1&lt;/font&gt;&lt;/b&gt;" style="text;html=1;align=center;verticalAlign=middle;whiteSpace=wrap;rounded=0;" parent="1" vertex="1">
          <mxGeometry x="-1595" y="2530" width="300" height="70" as="geometry" />
        </mxCell>
        <mxCell id="5_nV4KObTGlKEwLC51VY-52" value="" style="rounded=0;whiteSpace=wrap;html=1;" parent="1" vertex="1">
          <mxGeometry x="140" y="2675" width="1310" height="1000" as="geometry" />
        </mxCell>
        <mxCell id="5_nV4KObTGlKEwLC51VY-53" value="SHIFT_REG_64" style="rounded=0;whiteSpace=wrap;html=1;fontSize=18;" parent="1" vertex="1">
          <mxGeometry x="595" y="2900" width="180" height="230" as="geometry" />
        </mxCell>
        <mxCell id="5_nV4KObTGlKEwLC51VY-54" value="SHIFT_REG_128_SUB" style="rounded=0;whiteSpace=wrap;html=1;fontSize=16;" parent="1" vertex="1">
          <mxGeometry x="190" y="3090" width="180" height="230" as="geometry" />
        </mxCell>
        <mxCell id="5_nV4KObTGlKEwLC51VY-55" value="16IN_MUX" style="rounded=0;whiteSpace=wrap;html=1;fontSize=18;" parent="1" vertex="1">
          <mxGeometry x="420" y="2785" width="110" height="530" as="geometry" />
        </mxCell>
        <mxCell id="5_nV4KObTGlKEwLC51VY-56" value="BF2I" style="rounded=0;whiteSpace=wrap;html=1;fontSize=18;" parent="1" vertex="1">
          <mxGeometry x="815" y="2780" width="110" height="530" as="geometry" />
        </mxCell>
        <mxCell id="5_nV4KObTGlKEwLC51VY-57" value="MUL_FAC8_1" style="rounded=0;whiteSpace=wrap;html=1;fontSize=18;" parent="1" vertex="1">
          <mxGeometry x="975" y="2769.8" width="355" height="555" as="geometry" />
        </mxCell>
        <mxCell id="5_nV4KObTGlKEwLC51VY-58" value="" style="rounded=0;whiteSpace=wrap;html=1;" parent="1" vertex="1">
          <mxGeometry x="170" y="3395" width="1250" height="270" as="geometry" />
        </mxCell>
        <mxCell id="5_nV4KObTGlKEwLC51VY-115" style="edgeStyle=orthogonalEdgeStyle;rounded=0;orthogonalLoop=1;jettySize=auto;html=1;exitDx=0;exitDy=0;entryX=0.5;entryY=1;entryDx=0;entryDy=0;" parent="1" source="5_nV4KObTGlKEwLC51VY-118" target="5_nV4KObTGlKEwLC51VY-56" edge="1">
          <mxGeometry relative="1" as="geometry">
            <Array as="points">
              <mxPoint x="865" y="3530" />
              <mxPoint x="865" y="3310" />
            </Array>
          </mxGeometry>
        </mxCell>
        <mxCell id="5_nV4KObTGlKEwLC51VY-60" value="CNT_3B_FSM" style="rounded=0;whiteSpace=wrap;html=1;fontSize=18;" parent="1" vertex="1">
          <mxGeometry x="250" y="3452.5" width="150" height="155" as="geometry" />
        </mxCell>
        <mxCell id="5_nV4KObTGlKEwLC51VY-61" style="edgeStyle=orthogonalEdgeStyle;rounded=0;orthogonalLoop=1;jettySize=auto;html=1;exitX=0.75;exitY=0;exitDx=0;exitDy=0;entryX=0.333;entryY=1;entryDx=0;entryDy=0;entryPerimeter=0;" parent="1" source="5_nV4KObTGlKEwLC51VY-65" target="5_nV4KObTGlKEwLC51VY-110" edge="1">
          <mxGeometry relative="1" as="geometry">
            <Array as="points">
              <mxPoint x="1205" y="3453" />
              <mxPoint x="1205" y="3384" />
              <mxPoint x="1065" y="3384" />
              <mxPoint x="1065" y="3158" />
            </Array>
          </mxGeometry>
        </mxCell>
        <mxCell id="5_nV4KObTGlKEwLC51VY-62" value="ADDR" style="edgeLabel;html=1;align=center;verticalAlign=middle;resizable=0;points=[];" parent="5_nV4KObTGlKEwLC51VY-61" vertex="1" connectable="0">
          <mxGeometry x="0.1564" y="-2" relative="1" as="geometry">
            <mxPoint x="3" y="-56" as="offset" />
          </mxGeometry>
        </mxCell>
        <mxCell id="t2iHLjF0f6r9XzdgBtz3-1" style="edgeStyle=orthogonalEdgeStyle;rounded=0;orthogonalLoop=1;jettySize=auto;html=1;exitX=1;exitY=0.5;exitDx=0;exitDy=0;" parent="1" source="5_nV4KObTGlKEwLC51VY-65" edge="1">
          <mxGeometry relative="1" as="geometry">
            <mxPoint x="1545" y="3530" as="targetPoint" />
          </mxGeometry>
        </mxCell>
        <mxCell id="5_nV4KObTGlKEwLC51VY-65" value="MUL_TWF_CTRL" style="rounded=0;whiteSpace=wrap;html=1;fontSize=18;" parent="1" vertex="1">
          <mxGeometry x="1180" y="3452.5" width="150" height="155" as="geometry" />
        </mxCell>
        <mxCell id="5_nV4KObTGlKEwLC51VY-74" style="edgeStyle=orthogonalEdgeStyle;rounded=0;orthogonalLoop=1;jettySize=auto;html=1;exitX=1;exitY=0.25;exitDx=0;exitDy=0;entryX=0;entryY=0.685;entryDx=0;entryDy=0;entryPerimeter=0;" parent="1" source="5_nV4KObTGlKEwLC51VY-54" target="5_nV4KObTGlKEwLC51VY-55" edge="1">
          <mxGeometry relative="1" as="geometry" />
        </mxCell>
        <mxCell id="5_nV4KObTGlKEwLC51VY-75" style="edgeStyle=orthogonalEdgeStyle;rounded=0;orthogonalLoop=1;jettySize=auto;html=1;entryX=0;entryY=0.791;entryDx=0;entryDy=0;entryPerimeter=0;" parent="1" source="5_nV4KObTGlKEwLC51VY-54" target="5_nV4KObTGlKEwLC51VY-55" edge="1">
          <mxGeometry relative="1" as="geometry" />
        </mxCell>
        <mxCell id="5_nV4KObTGlKEwLC51VY-116" style="edgeStyle=orthogonalEdgeStyle;rounded=0;orthogonalLoop=1;jettySize=auto;html=1;exitX=0.5;exitY=0;exitDx=0;exitDy=0;entryX=0.5;entryY=1;entryDx=0;entryDy=0;" parent="1" source="5_nV4KObTGlKEwLC51VY-77" target="5_nV4KObTGlKEwLC51VY-55" edge="1">
          <mxGeometry relative="1" as="geometry" />
        </mxCell>
        <mxCell id="5_nV4KObTGlKEwLC51VY-77" value="MUX_SEL_CTRL" style="rounded=0;whiteSpace=wrap;html=1;fontSize=18;" parent="1" vertex="1">
          <mxGeometry x="565" y="3452.5" width="150" height="155" as="geometry" />
        </mxCell>
        <mxCell id="5_nV4KObTGlKEwLC51VY-83" style="edgeStyle=orthogonalEdgeStyle;rounded=0;orthogonalLoop=1;jettySize=auto;html=1;exitX=0.5;exitY=0;exitDx=0;exitDy=0;entryX=0.409;entryY=1.002;entryDx=0;entryDy=0;entryPerimeter=0;" parent="1" source="5_nV4KObTGlKEwLC51VY-65" target="5_nV4KObTGlKEwLC51VY-57" edge="1">
          <mxGeometry relative="1" as="geometry">
            <Array as="points">
              <mxPoint x="1255" y="3389" />
              <mxPoint x="1225" y="3389" />
              <mxPoint x="1225" y="3360" />
              <mxPoint x="1120" y="3360" />
            </Array>
          </mxGeometry>
        </mxCell>
        <mxCell id="5_nV4KObTGlKEwLC51VY-84" value="EN" style="edgeLabel;html=1;align=center;verticalAlign=middle;resizable=0;points=[];" parent="5_nV4KObTGlKEwLC51VY-83" vertex="1" connectable="0">
          <mxGeometry x="0.224" y="-2" relative="1" as="geometry">
            <mxPoint y="1" as="offset" />
          </mxGeometry>
        </mxCell>
        <mxCell id="5_nV4KObTGlKEwLC51VY-87" value="" style="endArrow=classic;html=1;rounded=0;entryX=0;entryY=0.078;entryDx=0;entryDy=0;entryPerimeter=0;exitX=1.013;exitY=0.178;exitDx=0;exitDy=0;exitPerimeter=0;strokeWidth=6;" parent="1" edge="1">
          <mxGeometry width="50" height="50" relative="1" as="geometry">
            <mxPoint x="1324" y="2927" as="sourcePoint" />
            <mxPoint x="1611" y="2925.2" as="targetPoint" />
          </mxGeometry>
        </mxCell>
        <mxCell id="5_nV4KObTGlKEwLC51VY-88" value="dout_R_add_02[0:15][22:0]" style="text;html=1;align=center;verticalAlign=middle;whiteSpace=wrap;rounded=0;" parent="1" vertex="1">
          <mxGeometry x="1451" y="2885" width="150" height="30" as="geometry" />
        </mxCell>
        <mxCell id="5_nV4KObTGlKEwLC51VY-89" value="" style="endArrow=classic;html=1;rounded=0;entryX=0;entryY=0.078;entryDx=0;entryDy=0;entryPerimeter=0;exitX=1;exitY=0.265;exitDx=0;exitDy=0;exitPerimeter=0;strokeWidth=6;" parent="1" edge="1">
          <mxGeometry width="50" height="50" relative="1" as="geometry">
            <mxPoint x="1321" y="2982" as="sourcePoint" />
            <mxPoint x="1611" y="2985.2" as="targetPoint" />
          </mxGeometry>
        </mxCell>
        <mxCell id="5_nV4KObTGlKEwLC51VY-90" value="dout_R_sub_02[0:15][22:0]" style="text;html=1;align=center;verticalAlign=middle;whiteSpace=wrap;rounded=0;" parent="1" vertex="1">
          <mxGeometry x="1451" y="2945" width="150" height="30" as="geometry" />
        </mxCell>
        <mxCell id="5_nV4KObTGlKEwLC51VY-91" value="" style="endArrow=classic;html=1;rounded=0;entryX=0;entryY=0.078;entryDx=0;entryDy=0;entryPerimeter=0;exitX=1;exitY=0.365;exitDx=0;exitDy=0;exitPerimeter=0;strokeWidth=6;" parent="1" edge="1">
          <mxGeometry width="50" height="50" relative="1" as="geometry">
            <mxPoint x="1321" y="3045" as="sourcePoint" />
            <mxPoint x="1611" y="3045.2" as="targetPoint" />
          </mxGeometry>
        </mxCell>
        <mxCell id="5_nV4KObTGlKEwLC51VY-92" value="dout_Q_add_02[0:15][22:0]" style="text;html=1;align=center;verticalAlign=middle;whiteSpace=wrap;rounded=0;" parent="1" vertex="1">
          <mxGeometry x="1451" y="3005" width="150" height="30" as="geometry" />
        </mxCell>
        <mxCell id="5_nV4KObTGlKEwLC51VY-93" value="" style="endArrow=classic;html=1;rounded=0;entryX=0;entryY=0.078;entryDx=0;entryDy=0;entryPerimeter=0;exitX=0.996;exitY=0.459;exitDx=0;exitDy=0;exitPerimeter=0;strokeWidth=6;" parent="1" edge="1">
          <mxGeometry width="50" height="50" relative="1" as="geometry">
            <mxPoint x="1320" y="3104" as="sourcePoint" />
            <mxPoint x="1611" y="3105.2" as="targetPoint" />
          </mxGeometry>
        </mxCell>
        <mxCell id="5_nV4KObTGlKEwLC51VY-94" value="dout_Q_sub_02[0:15][22:0]" style="text;html=1;align=center;verticalAlign=middle;whiteSpace=wrap;rounded=0;" parent="1" vertex="1">
          <mxGeometry x="1451" y="3065" width="150" height="30" as="geometry" />
        </mxCell>
        <mxCell id="5_nV4KObTGlKEwLC51VY-95" value="&lt;b&gt;&lt;font style=&quot;font-size: 35px;&quot;&gt;MODULE0_2&lt;/font&gt;&lt;/b&gt;" style="text;html=1;align=center;verticalAlign=middle;whiteSpace=wrap;rounded=0;" parent="1" vertex="1">
          <mxGeometry x="595" y="2575" width="300" height="70" as="geometry" />
        </mxCell>
        <mxCell id="5_nV4KObTGlKEwLC51VY-96" value="" style="endArrow=classic;html=1;rounded=0;entryX=0.018;entryY=0.057;entryDx=0;entryDy=0;entryPerimeter=0;exitX=1.013;exitY=0.178;exitDx=0;exitDy=0;exitPerimeter=0;strokeWidth=6;" parent="1" target="5_nV4KObTGlKEwLC51VY-55" edge="1">
          <mxGeometry width="50" height="50" relative="1" as="geometry">
            <mxPoint x="-147" y="2811.8" as="sourcePoint" />
            <mxPoint x="140" y="2810" as="targetPoint" />
          </mxGeometry>
        </mxCell>
        <mxCell id="5_nV4KObTGlKEwLC51VY-97" value="dout_R_add_01[0:15][12:0]" style="text;html=1;align=center;verticalAlign=middle;whiteSpace=wrap;rounded=0;" parent="1" vertex="1">
          <mxGeometry x="-20" y="2769.8" width="150" height="30" as="geometry" />
        </mxCell>
        <mxCell id="5_nV4KObTGlKEwLC51VY-100" value="" style="endArrow=classic;html=1;rounded=0;entryX=0.009;entryY=0.174;entryDx=0;entryDy=0;entryPerimeter=0;exitX=1;exitY=0.365;exitDx=0;exitDy=0;exitPerimeter=0;strokeWidth=6;" parent="1" target="5_nV4KObTGlKEwLC51VY-55" edge="1">
          <mxGeometry width="50" height="50" relative="1" as="geometry">
            <mxPoint x="-150" y="2880" as="sourcePoint" />
            <mxPoint x="140" y="2880.2" as="targetPoint" />
          </mxGeometry>
        </mxCell>
        <mxCell id="5_nV4KObTGlKEwLC51VY-101" value="dout_Q_add_01[0:15][12:0]" style="text;html=1;align=center;verticalAlign=middle;whiteSpace=wrap;rounded=0;" parent="1" vertex="1">
          <mxGeometry x="-20" y="2840" width="150" height="30" as="geometry" />
        </mxCell>
        <mxCell id="5_nV4KObTGlKEwLC51VY-104" value="" style="endArrow=classic;html=1;rounded=0;entryX=0;entryY=0.078;entryDx=0;entryDy=0;entryPerimeter=0;exitX=1;exitY=0.265;exitDx=0;exitDy=0;exitPerimeter=0;strokeWidth=6;" parent="1" edge="1">
          <mxGeometry width="50" height="50" relative="1" as="geometry">
            <mxPoint x="-100" y="3146.9" as="sourcePoint" />
            <mxPoint x="190" y="3150.1" as="targetPoint" />
          </mxGeometry>
        </mxCell>
        <mxCell id="5_nV4KObTGlKEwLC51VY-105" value="dout_R_sub_01[0:15][12:0]" style="text;html=1;align=center;verticalAlign=middle;whiteSpace=wrap;rounded=0;" parent="1" vertex="1">
          <mxGeometry x="30" y="3109.9" width="150" height="30" as="geometry" />
        </mxCell>
        <mxCell id="5_nV4KObTGlKEwLC51VY-106" value="" style="endArrow=classic;html=1;rounded=0;entryX=0;entryY=0.078;entryDx=0;entryDy=0;entryPerimeter=0;exitX=0.996;exitY=0.459;exitDx=0;exitDy=0;exitPerimeter=0;strokeWidth=6;" parent="1" edge="1">
          <mxGeometry width="50" height="50" relative="1" as="geometry">
            <mxPoint x="-101" y="3199" as="sourcePoint" />
            <mxPoint x="190" y="3200.2" as="targetPoint" />
          </mxGeometry>
        </mxCell>
        <mxCell id="5_nV4KObTGlKEwLC51VY-107" value="dout_Q_sub_01[0:15][12:0]" style="text;html=1;align=center;verticalAlign=middle;whiteSpace=wrap;rounded=0;" parent="1" vertex="1">
          <mxGeometry x="30" y="3160" width="150" height="30" as="geometry" />
        </mxCell>
        <mxCell id="5_nV4KObTGlKEwLC51VY-108" style="edgeStyle=orthogonalEdgeStyle;rounded=0;orthogonalLoop=1;jettySize=auto;html=1;" parent="1" source="5_nV4KObTGlKEwLC51VY-113" edge="1">
          <mxGeometry relative="1" as="geometry">
            <mxPoint x="250" y="3529.5" as="targetPoint" />
            <mxPoint x="-115" y="3530" as="sourcePoint" />
          </mxGeometry>
        </mxCell>
        <mxCell id="5_nV4KObTGlKEwLC51VY-109" value="alert_02" style="edgeLabel;html=1;align=center;verticalAlign=middle;resizable=0;points=[];fontSize=19;" parent="5_nV4KObTGlKEwLC51VY-108" vertex="1" connectable="0">
          <mxGeometry x="0.5404" y="6" relative="1" as="geometry">
            <mxPoint x="-171" y="-4" as="offset" />
          </mxGeometry>
        </mxCell>
        <mxCell id="5_nV4KObTGlKEwLC51VY-110" value="TWF_GEN&lt;div&gt;&lt;br&gt;&lt;/div&gt;&lt;div&gt;16개&lt;/div&gt;" style="rounded=0;whiteSpace=wrap;html=1;fontSize=18;" parent="1" vertex="1">
          <mxGeometry x="995" y="3070" width="150" height="155" as="geometry" />
        </mxCell>
        <mxCell id="5_nV4KObTGlKEwLC51VY-111" value="" style="edgeStyle=orthogonalEdgeStyle;rounded=0;orthogonalLoop=1;jettySize=auto;html=1;" parent="1" target="5_nV4KObTGlKEwLC51VY-113" edge="1">
          <mxGeometry relative="1" as="geometry">
            <mxPoint x="250" y="3529.5" as="targetPoint" />
            <mxPoint x="-115" y="3530" as="sourcePoint" />
          </mxGeometry>
        </mxCell>
        <mxCell id="5_nV4KObTGlKEwLC51VY-113" value="" style="shape=waypoint;sketch=0;fillStyle=solid;size=6;pointerEvents=1;points=[];fillColor=none;resizable=0;rotatable=0;perimeter=centerPerimeter;snapToPoint=1;" parent="1" vertex="1">
          <mxGeometry x="83" y="3520" width="20" height="20" as="geometry" />
        </mxCell>
        <mxCell id="5_nV4KObTGlKEwLC51VY-117" value="" style="edgeStyle=orthogonalEdgeStyle;rounded=0;orthogonalLoop=1;jettySize=auto;html=1;exitX=1;exitY=0.5;exitDx=0;exitDy=0;entryDx=0;entryDy=0;" parent="1" source="5_nV4KObTGlKEwLC51VY-60" target="5_nV4KObTGlKEwLC51VY-118" edge="1">
          <mxGeometry relative="1" as="geometry">
            <mxPoint x="400" y="3530" as="sourcePoint" />
            <mxPoint x="890" y="3310" as="targetPoint" />
            <Array as="points">
              <mxPoint x="465" y="3530" />
              <mxPoint x="465" y="3640" />
              <mxPoint x="890" y="3640" />
            </Array>
          </mxGeometry>
        </mxCell>
        <mxCell id="5_nV4KObTGlKEwLC51VY-119" style="edgeStyle=orthogonalEdgeStyle;rounded=0;orthogonalLoop=1;jettySize=auto;html=1;entryX=0;entryY=0.5;entryDx=0;entryDy=0;" parent="1" source="5_nV4KObTGlKEwLC51VY-118" target="5_nV4KObTGlKEwLC51VY-65" edge="1">
          <mxGeometry relative="1" as="geometry" />
        </mxCell>
        <mxCell id="5_nV4KObTGlKEwLC51VY-118" value="" style="shape=waypoint;sketch=0;fillStyle=solid;size=6;pointerEvents=1;points=[];fillColor=none;resizable=0;rotatable=0;perimeter=centerPerimeter;snapToPoint=1;" parent="1" vertex="1">
          <mxGeometry x="885" y="3520" width="20" height="20" as="geometry" />
        </mxCell>
        <mxCell id="t2iHLjF0f6r9XzdgBtz3-2" value="alert_CBFP" style="edgeLabel;html=1;align=center;verticalAlign=middle;resizable=0;points=[];fontSize=19;" parent="1" vertex="1" connectable="0">
          <mxGeometry x="83" y="3510" as="geometry">
            <mxPoint x="1432" y="-2" as="offset" />
          </mxGeometry>
        </mxCell>
        <mxCell id="t2iHLjF0f6r9XzdgBtz3-14" value="" style="rounded=0;whiteSpace=wrap;html=1;" parent="1" vertex="1">
          <mxGeometry x="2275" y="1630" width="4341" height="3510" as="geometry" />
        </mxCell>
        <mxCell id="t2iHLjF0f6r9XzdgBtz3-15" value="" style="rounded=0;whiteSpace=wrap;html=1;fontSize=20;" parent="1" vertex="1">
          <mxGeometry x="2866" y="2800" width="294" height="570" as="geometry" />
        </mxCell>
        <mxCell id="fPCoFj92QrMG_XCeIt7N-1" value="" style="rounded=0;whiteSpace=wrap;html=1;fontSize=33;" parent="1" vertex="1">
          <mxGeometry x="3260" y="2630" width="1240" height="1650" as="geometry" />
        </mxCell>
        <mxCell id="fPCoFj92QrMG_XCeIt7N-2" value="SUB_SHIFT_REG_64" style="rounded=0;whiteSpace=wrap;html=1;fontSize=33;" parent="1" vertex="1">
          <mxGeometry x="2316" y="3130" width="260" height="240" as="geometry" />
        </mxCell>
        <mxCell id="fPCoFj92QrMG_XCeIt7N-7" value="32_to_16&lt;div&gt;MUX&lt;/div&gt;" style="rounded=0;whiteSpace=wrap;html=1;fontSize=26;" parent="1" vertex="1">
          <mxGeometry x="2626" y="2840" width="110" height="530" as="geometry" />
        </mxCell>
        <mxCell id="fPCoFj92QrMG_XCeIt7N-8" style="edgeStyle=orthogonalEdgeStyle;rounded=0;orthogonalLoop=1;jettySize=auto;html=1;exitX=1;exitY=0.25;exitDx=0;exitDy=0;entryX=0;entryY=0.685;entryDx=0;entryDy=0;entryPerimeter=0;" parent="1" target="fPCoFj92QrMG_XCeIt7N-7" edge="1">
          <mxGeometry relative="1" as="geometry">
            <mxPoint x="2576" y="3202.5" as="sourcePoint" />
          </mxGeometry>
        </mxCell>
        <mxCell id="fPCoFj92QrMG_XCeIt7N-9" style="edgeStyle=orthogonalEdgeStyle;rounded=0;orthogonalLoop=1;jettySize=auto;html=1;entryX=0;entryY=0.791;entryDx=0;entryDy=0;entryPerimeter=0;" parent="1" target="fPCoFj92QrMG_XCeIt7N-7" edge="1">
          <mxGeometry relative="1" as="geometry">
            <mxPoint x="2576" y="3260.0588235294117" as="sourcePoint" />
          </mxGeometry>
        </mxCell>
        <mxCell id="fPCoFj92QrMG_XCeIt7N-10" value="&lt;font style=&quot;font-size: 25px;&quot;&gt;alert_CBFP&lt;/font&gt;" style="text;html=1;align=center;verticalAlign=middle;whiteSpace=wrap;rounded=0;" parent="1" vertex="1">
          <mxGeometry x="2108" y="4640" width="60" height="30" as="geometry" />
        </mxCell>
        <mxCell id="fPCoFj92QrMG_XCeIt7N-11" value="" style="endArrow=classic;html=1;rounded=0;exitX=1.013;exitY=0.178;exitDx=0;exitDy=0;exitPerimeter=0;strokeWidth=6;entryX=0.015;entryY=0.486;entryDx=0;entryDy=0;entryPerimeter=0;" parent="1" target="t2iHLjF0f6r9XzdgBtz3-15" edge="1">
          <mxGeometry width="50" height="50" relative="1" as="geometry">
            <mxPoint x="2736" y="3081.8" as="sourcePoint" />
            <mxPoint x="2816" y="3080" as="targetPoint" />
          </mxGeometry>
        </mxCell>
        <mxCell id="fPCoFj92QrMG_XCeIt7N-12" value="&lt;font style=&quot;font-size: 22px;&quot;&gt;16&lt;/font&gt;" style="text;html=1;align=center;verticalAlign=middle;whiteSpace=wrap;rounded=0;" parent="1" vertex="1">
          <mxGeometry x="2766" y="3050" width="60" height="30" as="geometry" />
        </mxCell>
        <mxCell id="fPCoFj92QrMG_XCeIt7N-15" value="" style="endArrow=classic;html=1;rounded=0;exitX=1.013;exitY=0.178;exitDx=0;exitDy=0;exitPerimeter=0;strokeWidth=6;" parent="1" edge="1">
          <mxGeometry width="50" height="50" relative="1" as="geometry">
            <mxPoint x="3160" y="3079.3300000000004" as="sourcePoint" />
            <mxPoint x="3260" y="3080" as="targetPoint" />
          </mxGeometry>
        </mxCell>
        <mxCell id="fPCoFj92QrMG_XCeIt7N-16" value="&lt;font style=&quot;font-size: 22px;&quot;&gt;16&lt;/font&gt;" style="text;html=1;align=center;verticalAlign=middle;whiteSpace=wrap;rounded=0;" parent="1" vertex="1">
          <mxGeometry x="3181" y="3042.36" width="58" height="30" as="geometry" />
        </mxCell>
        <mxCell id="fPCoFj92QrMG_XCeIt7N-17" value="" style="endArrow=classic;html=1;rounded=0;exitX=1.013;exitY=0.178;exitDx=0;exitDy=0;exitPerimeter=0;strokeWidth=6;entryX=0.015;entryY=0.486;entryDx=0;entryDy=0;entryPerimeter=0;" parent="1" edge="1">
          <mxGeometry width="50" height="50" relative="1" as="geometry">
            <mxPoint x="4420" y="3021.8" as="sourcePoint" />
            <mxPoint x="4554" y="3022" as="targetPoint" />
          </mxGeometry>
        </mxCell>
        <mxCell id="fPCoFj92QrMG_XCeIt7N-18" value="&lt;font style=&quot;font-size: 22px;&quot;&gt;1&lt;/font&gt;" style="text;html=1;align=center;verticalAlign=middle;whiteSpace=wrap;rounded=0;" parent="1" vertex="1">
          <mxGeometry x="4450" y="2990" width="60" height="30" as="geometry" />
        </mxCell>
        <mxCell id="fPCoFj92QrMG_XCeIt7N-20" value="SHIFT_REG_4" style="rounded=0;whiteSpace=wrap;html=1;fontSize=33;" parent="1" vertex="1">
          <mxGeometry x="4549" y="2830" width="260" height="382" as="geometry" />
        </mxCell>
        <mxCell id="fPCoFj92QrMG_XCeIt7N-22" value="MIN&lt;div&gt;&lt;br&gt;&lt;/div&gt;&lt;div&gt;RE &amp;amp; IM&lt;/div&gt;" style="rounded=0;whiteSpace=wrap;html=1;fontSize=33;" parent="1" vertex="1">
          <mxGeometry x="4944" y="2755.61" width="756" height="560" as="geometry" />
        </mxCell>
        <mxCell id="fPCoFj92QrMG_XCeIt7N-23" value="" style="endArrow=classic;html=1;rounded=0;exitX=1.013;exitY=0.178;exitDx=0;exitDy=0;exitPerimeter=0;strokeWidth=6;entryX=0.015;entryY=0.486;entryDx=0;entryDy=0;entryPerimeter=0;" parent="1" edge="1">
          <mxGeometry width="50" height="50" relative="1" as="geometry">
            <mxPoint x="4815" y="3036.19" as="sourcePoint" />
            <mxPoint x="4949" y="3036.39" as="targetPoint" />
          </mxGeometry>
        </mxCell>
        <mxCell id="fPCoFj92QrMG_XCeIt7N-24" value="&lt;font style=&quot;font-size: 22px;&quot;&gt;4&lt;/font&gt;" style="text;html=1;align=center;verticalAlign=middle;whiteSpace=wrap;rounded=0;" parent="1" vertex="1">
          <mxGeometry x="4845" y="3004.39" width="60" height="30" as="geometry" />
        </mxCell>
        <mxCell id="fPCoFj92QrMG_XCeIt7N-25" value="CU" style="rounded=0;whiteSpace=wrap;html=1;fontSize=33;" parent="1" vertex="1">
          <mxGeometry x="2323" y="4370" width="4239" height="459" as="geometry" />
        </mxCell>
        <mxCell id="fPCoFj92QrMG_XCeIt7N-26" value="&lt;font style=&quot;font-size: 50px;&quot;&gt;CBFP&lt;/font&gt;" style="text;html=1;align=center;verticalAlign=middle;whiteSpace=wrap;rounded=0;" parent="1" vertex="1">
          <mxGeometry x="4200" y="1490" width="650" height="160" as="geometry" />
        </mxCell>
        <mxCell id="HrCCYYtgXBBygM2oDOVi-43" style="edgeStyle=orthogonalEdgeStyle;rounded=0;orthogonalLoop=1;jettySize=auto;html=1;exitX=0.5;exitY=0;exitDx=0;exitDy=0;entryX=0.5;entryY=1;entryDx=0;entryDy=0;" parent="1" source="HrCCYYtgXBBygM2oDOVi-1" target="fPCoFj92QrMG_XCeIt7N-7" edge="1">
          <mxGeometry relative="1" as="geometry" />
        </mxCell>
        <mxCell id="HrCCYYtgXBBygM2oDOVi-1" value="MUX_SEL_CTRL" style="rounded=0;whiteSpace=wrap;html=1;fontSize=35;" parent="1" vertex="1">
          <mxGeometry x="2418" y="4439" width="300" height="290" as="geometry" />
        </mxCell>
        <mxCell id="HrCCYYtgXBBygM2oDOVi-6" value="&lt;div style=&quot;text-align: start;&quot;&gt;&lt;span style=&quot;background-color: transparent; font-size: 0px; text-wrap-mode: nowrap;&quot;&gt;&lt;font face=&quot;monospace&quot; color=&quot;rgba(0, 0, 0, 0)&quot;&gt;IM&lt;/font&gt;&lt;/span&gt;&lt;/div&gt;" style="text;html=1;align=center;verticalAlign=middle;whiteSpace=wrap;rounded=0;" parent="1" vertex="1">
          <mxGeometry x="4336" y="3160" width="60" height="30" as="geometry" />
        </mxCell>
        <mxCell id="HrCCYYtgXBBygM2oDOVi-12" value="&lt;div style=&quot;text-align: start;&quot;&gt;&lt;span style=&quot;background-color: transparent; font-size: 0px; text-wrap-mode: nowrap;&quot;&gt;&lt;font face=&quot;monospace&quot; color=&quot;rgba(0, 0, 0, 0)&quot;&gt;IM&lt;/font&gt;&lt;/span&gt;&lt;/div&gt;" style="text;html=1;align=center;verticalAlign=middle;whiteSpace=wrap;rounded=0;" parent="1" vertex="1">
          <mxGeometry x="4766" y="3202.96" width="60" height="30" as="geometry" />
        </mxCell>
        <mxCell id="HrCCYYtgXBBygM2oDOVi-14" value="" style="endArrow=classic;html=1;rounded=0;exitX=1.013;exitY=0.178;exitDx=0;exitDy=0;exitPerimeter=0;strokeWidth=6;entryX=0.015;entryY=0.486;entryDx=0;entryDy=0;entryPerimeter=0;" parent="1" edge="1">
          <mxGeometry width="50" height="50" relative="1" as="geometry">
            <mxPoint x="5720" y="3063.0000000000005" as="sourcePoint" />
            <mxPoint x="5854" y="3063.2000000000003" as="targetPoint" />
          </mxGeometry>
        </mxCell>
        <mxCell id="HrCCYYtgXBBygM2oDOVi-16" value="&lt;font style=&quot;font-size: 28px;&quot;&gt;scaling-factor&lt;/font&gt;" style="text;html=1;align=center;verticalAlign=middle;whiteSpace=wrap;rounded=0;" parent="1" vertex="1">
          <mxGeometry x="5750" y="2990.0000000000005" width="60" height="30" as="geometry" />
        </mxCell>
        <mxCell id="HrCCYYtgXBBygM2oDOVi-17" value="BIT_SHIFT" style="rounded=0;whiteSpace=wrap;html=1;fontSize=33;" parent="1" vertex="1">
          <mxGeometry x="5854" y="2739.39" width="516" height="560" as="geometry" />
        </mxCell>
        <mxCell id="HrCCYYtgXBBygM2oDOVi-19" value="CBFP_SHIFT_REG_7CLK" style="rounded=0;whiteSpace=wrap;html=1;fontSize=33;" parent="1" vertex="1">
          <mxGeometry x="3692" y="1640" width="1095" height="920" as="geometry" />
        </mxCell>
        <mxCell id="HrCCYYtgXBBygM2oDOVi-110" style="edgeStyle=orthogonalEdgeStyle;rounded=0;orthogonalLoop=1;jettySize=auto;html=1;entryX=0;entryY=0.5;entryDx=0;entryDy=0;" parent="1" source="HrCCYYtgXBBygM2oDOVi-20" target="HrCCYYtgXBBygM2oDOVi-21" edge="1">
          <mxGeometry relative="1" as="geometry" />
        </mxCell>
        <mxCell id="HrCCYYtgXBBygM2oDOVi-20" value="MAG_CTRL&lt;div&gt;&lt;br&gt;&lt;/div&gt;&lt;div&gt;32clk_high&lt;/div&gt;" style="rounded=0;whiteSpace=wrap;html=1;fontSize=35;" parent="1" vertex="1">
          <mxGeometry x="2833" y="4434.5" width="300" height="290" as="geometry" />
        </mxCell>
        <mxCell id="HrCCYYtgXBBygM2oDOVi-111" style="edgeStyle=orthogonalEdgeStyle;rounded=0;orthogonalLoop=1;jettySize=auto;html=1;exitX=1;exitY=0.5;exitDx=0;exitDy=0;entryX=0.5;entryY=1;entryDx=0;entryDy=0;" parent="1" source="HrCCYYtgXBBygM2oDOVi-21" edge="1">
          <mxGeometry relative="1" as="geometry">
            <mxPoint x="3574" y="4579.5" as="sourcePoint" />
            <mxPoint x="4704" y="4724.5" as="targetPoint" />
            <Array as="points">
              <mxPoint x="3574" y="4580" />
              <mxPoint x="3574" y="4769" />
              <mxPoint x="4704" y="4769" />
            </Array>
          </mxGeometry>
        </mxCell>
        <mxCell id="HrCCYYtgXBBygM2oDOVi-21" value="MIN_CTRL&lt;div&gt;&lt;br&gt;&lt;/div&gt;&lt;div&gt;32clk_high&lt;/div&gt;" style="rounded=0;whiteSpace=wrap;html=1;fontSize=35;" parent="1" vertex="1">
          <mxGeometry x="3231" y="4434.5" width="300" height="290" as="geometry" />
        </mxCell>
        <mxCell id="HrCCYYtgXBBygM2oDOVi-99" style="edgeStyle=orthogonalEdgeStyle;rounded=0;orthogonalLoop=1;jettySize=auto;html=1;exitX=0.75;exitY=0;exitDx=0;exitDy=0;entryX=0.5;entryY=1;entryDx=0;entryDy=0;" parent="1" source="HrCCYYtgXBBygM2oDOVi-22" target="fPCoFj92QrMG_XCeIt7N-22" edge="1">
          <mxGeometry relative="1" as="geometry" />
        </mxCell>
        <mxCell id="HrCCYYtgXBBygM2oDOVi-115" style="edgeStyle=orthogonalEdgeStyle;rounded=0;orthogonalLoop=1;jettySize=auto;html=1;exitX=1;exitY=0.5;exitDx=0;exitDy=0;entryX=0;entryY=0.5;entryDx=0;entryDy=0;" parent="1" source="HrCCYYtgXBBygM2oDOVi-22" target="HrCCYYtgXBBygM2oDOVi-24" edge="1">
          <mxGeometry relative="1" as="geometry" />
        </mxCell>
        <mxCell id="HrCCYYtgXBBygM2oDOVi-22" value="MIN_CTRL&lt;div&gt;&lt;br&gt;&lt;/div&gt;&lt;div&gt;1tick&lt;/div&gt;" style="rounded=0;whiteSpace=wrap;html=1;fontSize=35;" parent="1" vertex="1">
          <mxGeometry x="4511" y="4434.5" width="300" height="290" as="geometry" />
        </mxCell>
        <mxCell id="HrCCYYtgXBBygM2oDOVi-52" style="edgeStyle=orthogonalEdgeStyle;rounded=0;orthogonalLoop=1;jettySize=auto;html=1;entryX=0.5;entryY=1;entryDx=0;entryDy=0;" parent="1" source="HrCCYYtgXBBygM2oDOVi-24" target="HrCCYYtgXBBygM2oDOVi-17" edge="1">
          <mxGeometry relative="1" as="geometry" />
        </mxCell>
        <mxCell id="HrCCYYtgXBBygM2oDOVi-24" value="BIT_SHIFT_CTRL" style="rounded=0;whiteSpace=wrap;html=1;fontSize=35;" parent="1" vertex="1">
          <mxGeometry x="5512" y="4434.5" width="300" height="290" as="geometry" />
        </mxCell>
        <mxCell id="HrCCYYtgXBBygM2oDOVi-30" value="2_in_min[0]" style="whiteSpace=wrap;html=1;aspect=fixed;fontSize=25;" parent="1" vertex="1">
          <mxGeometry x="3309" y="2728.98" width="130" height="130" as="geometry" />
        </mxCell>
        <mxCell id="HrCCYYtgXBBygM2oDOVi-31" value="2_in_min[7]" style="whiteSpace=wrap;html=1;aspect=fixed;fontSize=25;" parent="1" vertex="1">
          <mxGeometry x="3308" y="3226.94" width="130" height="130" as="geometry" />
        </mxCell>
        <mxCell id="HrCCYYtgXBBygM2oDOVi-32" value="2_in_min[1]" style="whiteSpace=wrap;html=1;aspect=fixed;fontSize=25;" parent="1" vertex="1">
          <mxGeometry x="3309" y="2857.55" width="130" height="130" as="geometry" />
        </mxCell>
        <mxCell id="HrCCYYtgXBBygM2oDOVi-33" value="2_in_min[6]" style="whiteSpace=wrap;html=1;aspect=fixed;fontSize=25;" parent="1" vertex="1">
          <mxGeometry x="3308" y="3096.94" width="130" height="130" as="geometry" />
        </mxCell>
        <mxCell id="HrCCYYtgXBBygM2oDOVi-34" value="2_in_min[0]" style="whiteSpace=wrap;html=1;aspect=fixed;fontSize=25;" parent="1" vertex="1">
          <mxGeometry x="3500" y="2739.39" width="130" height="130" as="geometry" />
        </mxCell>
        <mxCell id="HrCCYYtgXBBygM2oDOVi-35" value="2_in_min[1]" style="whiteSpace=wrap;html=1;aspect=fixed;fontSize=25;" parent="1" vertex="1">
          <mxGeometry x="3500" y="2900" width="130" height="130" as="geometry" />
        </mxCell>
        <mxCell id="HrCCYYtgXBBygM2oDOVi-36" value="2_in_min[0]" style="whiteSpace=wrap;html=1;aspect=fixed;fontSize=25;" parent="1" vertex="1">
          <mxGeometry x="3890" y="2793" width="130" height="130" as="geometry" />
        </mxCell>
        <mxCell id="HrCCYYtgXBBygM2oDOVi-37" value="2_in_min[0]" style="whiteSpace=wrap;html=1;aspect=fixed;fontSize=25;" parent="1" vertex="1">
          <mxGeometry x="3500" y="3060" width="130" height="130" as="geometry" />
        </mxCell>
        <mxCell id="HrCCYYtgXBBygM2oDOVi-38" value="2_in_min[1]" style="whiteSpace=wrap;html=1;aspect=fixed;fontSize=25;" parent="1" vertex="1">
          <mxGeometry x="3500" y="3217.96" width="130" height="130" as="geometry" />
        </mxCell>
        <mxCell id="HrCCYYtgXBBygM2oDOVi-39" value="2_in_min[0]" style="whiteSpace=wrap;html=1;aspect=fixed;fontSize=25;" parent="1" vertex="1">
          <mxGeometry x="3890" y="3087.96" width="130" height="130" as="geometry" />
        </mxCell>
        <mxCell id="HrCCYYtgXBBygM2oDOVi-40" value="2_in_min[0]" style="whiteSpace=wrap;html=1;aspect=fixed;fontSize=25;" parent="1" vertex="1">
          <mxGeometry x="4135" y="2935" width="130" height="130" as="geometry" />
        </mxCell>
        <mxCell id="HrCCYYtgXBBygM2oDOVi-41" value="&lt;font style=&quot;font-size: 46px;&quot;&gt;4Stage: MIN 비교기_RE&lt;/font&gt;" style="text;html=1;align=center;verticalAlign=middle;whiteSpace=wrap;rounded=0;" parent="1" vertex="1">
          <mxGeometry x="3480" y="2640" width="560" height="70" as="geometry" />
        </mxCell>
        <mxCell id="HrCCYYtgXBBygM2oDOVi-42" value="&lt;span style=&quot;font-size: 25px;&quot;&gt;Pipe_reg&lt;/span&gt;&lt;div&gt;&lt;span style=&quot;font-size: 25px;&quot;&gt;&lt;br&gt;&lt;/span&gt;&lt;/div&gt;&lt;div&gt;&lt;span style=&quot;font-size: 25px;&quot;&gt;1clk delay&lt;/span&gt;&lt;/div&gt;" style="rounded=0;whiteSpace=wrap;html=1;" parent="1" vertex="1">
          <mxGeometry x="3680" y="2739.39" width="120" height="610" as="geometry" />
        </mxCell>
        <mxCell id="t2iHLjF0f6r9XzdgBtz3-5" value="" style="endArrow=classic;html=1;rounded=0;entryX=0;entryY=0.078;entryDx=0;entryDy=0;entryPerimeter=0;strokeWidth=6;fontSize=25;" parent="1" edge="1">
          <mxGeometry width="50" height="50" relative="1" as="geometry">
            <mxPoint x="2050" y="2887" as="sourcePoint" />
            <mxPoint x="2629" y="2886.8" as="targetPoint" />
          </mxGeometry>
        </mxCell>
        <mxCell id="t2iHLjF0f6r9XzdgBtz3-6" value="dout_R_add_02[0:15][22:0]" style="text;html=1;align=center;verticalAlign=middle;whiteSpace=wrap;rounded=0;fontSize=25;" parent="1" vertex="1">
          <mxGeometry x="2402" y="2826.8" width="150" height="30" as="geometry" />
        </mxCell>
        <mxCell id="t2iHLjF0f6r9XzdgBtz3-7" value="" style="endArrow=classic;html=1;rounded=0;entryX=0;entryY=0.078;entryDx=0;entryDy=0;entryPerimeter=0;exitX=1;exitY=0.265;exitDx=0;exitDy=0;exitPerimeter=0;strokeWidth=6;fontSize=25;" parent="1" edge="1">
          <mxGeometry width="50" height="50" relative="1" as="geometry">
            <mxPoint x="2026" y="3186.36" as="sourcePoint" />
            <mxPoint x="2316" y="3189.56" as="targetPoint" />
          </mxGeometry>
        </mxCell>
        <mxCell id="t2iHLjF0f6r9XzdgBtz3-8" value="dout_R_sub_02[0:15][22:0]" style="text;html=1;align=center;verticalAlign=middle;whiteSpace=wrap;rounded=0;fontSize=25;" parent="1" vertex="1">
          <mxGeometry x="2109" y="3116.36" width="150" height="30" as="geometry" />
        </mxCell>
        <mxCell id="t2iHLjF0f6r9XzdgBtz3-9" value="" style="endArrow=classic;html=1;rounded=0;entryX=0;entryY=0.078;entryDx=0;entryDy=0;entryPerimeter=0;strokeWidth=6;fontSize=25;" parent="1" edge="1">
          <mxGeometry width="50" height="50" relative="1" as="geometry">
            <mxPoint x="2020" y="3040" as="sourcePoint" />
            <mxPoint x="2626" y="3039.8399999999997" as="targetPoint" />
          </mxGeometry>
        </mxCell>
        <mxCell id="t2iHLjF0f6r9XzdgBtz3-10" value="dout_Q_add_02[0:15][22:0]" style="text;html=1;align=center;verticalAlign=middle;whiteSpace=wrap;rounded=0;fontSize=25;" parent="1" vertex="1">
          <mxGeometry x="2417" y="2967.07" width="150" height="30" as="geometry" />
        </mxCell>
        <mxCell id="t2iHLjF0f6r9XzdgBtz3-11" value="" style="endArrow=classic;html=1;rounded=0;entryX=0;entryY=0.078;entryDx=0;entryDy=0;entryPerimeter=0;exitX=0.996;exitY=0.459;exitDx=0;exitDy=0;exitPerimeter=0;strokeWidth=6;fontSize=25;" parent="1" edge="1">
          <mxGeometry width="50" height="50" relative="1" as="geometry">
            <mxPoint x="2034" y="3341.96" as="sourcePoint" />
            <mxPoint x="2325" y="3343.16" as="targetPoint" />
          </mxGeometry>
        </mxCell>
        <mxCell id="t2iHLjF0f6r9XzdgBtz3-12" value="dout_Q_sub_02[0:15][22:0]" style="text;html=1;align=center;verticalAlign=middle;whiteSpace=wrap;rounded=0;fontSize=25;" parent="1" vertex="1">
          <mxGeometry x="2104.5" y="3267.96" width="150" height="30" as="geometry" />
        </mxCell>
        <mxCell id="HrCCYYtgXBBygM2oDOVi-46" value="" style="endArrow=classic;html=1;rounded=0;exitX=1.013;exitY=0.178;exitDx=0;exitDy=0;exitPerimeter=0;strokeWidth=6;entryX=0.015;entryY=0.486;entryDx=0;entryDy=0;entryPerimeter=0;" parent="1" edge="1">
          <mxGeometry width="50" height="50" relative="1" as="geometry">
            <mxPoint x="2736" y="3211.8" as="sourcePoint" />
            <mxPoint x="2870" y="3212" as="targetPoint" />
          </mxGeometry>
        </mxCell>
        <mxCell id="HrCCYYtgXBBygM2oDOVi-47" value="&lt;font style=&quot;font-size: 22px;&quot;&gt;16&lt;/font&gt;" style="text;html=1;align=center;verticalAlign=middle;whiteSpace=wrap;rounded=0;" parent="1" vertex="1">
          <mxGeometry x="2766" y="3180" width="60" height="30" as="geometry" />
        </mxCell>
        <mxCell id="HrCCYYtgXBBygM2oDOVi-48" value="" style="endArrow=classic;html=1;rounded=0;exitX=1.013;exitY=0.178;exitDx=0;exitDy=0;exitPerimeter=0;strokeWidth=6;entryX=-0.001;entryY=0.206;entryDx=0;entryDy=0;entryPerimeter=0;" parent="1" edge="1">
          <mxGeometry width="50" height="50" relative="1" as="geometry">
            <mxPoint x="3160" y="3366.94" as="sourcePoint" />
            <mxPoint x="3292.866000000001" y="3583.0000000000005" as="targetPoint" />
          </mxGeometry>
        </mxCell>
        <mxCell id="HrCCYYtgXBBygM2oDOVi-49" value="&lt;font style=&quot;font-size: 22px;&quot;&gt;16&lt;/font&gt;" style="text;html=1;align=center;verticalAlign=middle;whiteSpace=wrap;rounded=0;" parent="1" vertex="1">
          <mxGeometry x="3200" y="3420" width="60" height="30" as="geometry" />
        </mxCell>
        <mxCell id="HrCCYYtgXBBygM2oDOVi-54" value="2_in_min[0]" style="whiteSpace=wrap;html=1;aspect=fixed;fontSize=25;" parent="1" vertex="1">
          <mxGeometry x="4961" y="2770" width="130" height="130" as="geometry" />
        </mxCell>
        <mxCell id="HrCCYYtgXBBygM2oDOVi-55" value="2_in_min[0]" style="whiteSpace=wrap;html=1;aspect=fixed;fontSize=25;" parent="1" vertex="1">
          <mxGeometry x="4962" y="3060" width="130" height="130" as="geometry" />
        </mxCell>
        <mxCell id="HrCCYYtgXBBygM2oDOVi-57" value="&lt;span style=&quot;font-size: 25px;&quot;&gt;2_in_min[0]&lt;/span&gt;" style="rounded=0;whiteSpace=wrap;html=1;" parent="1" vertex="1">
          <mxGeometry x="5400" y="2824" width="140" height="388" as="geometry" />
        </mxCell>
        <mxCell id="HrCCYYtgXBBygM2oDOVi-58" value="&lt;span style=&quot;font-size: 25px;&quot;&gt;Pipe_reg&lt;/span&gt;&lt;div&gt;&lt;span style=&quot;font-size: 25px;&quot;&gt;&lt;br&gt;&lt;/span&gt;&lt;/div&gt;&lt;div&gt;&lt;span style=&quot;font-size: 25px;&quot;&gt;1clk delay&lt;/span&gt;&lt;/div&gt;" style="rounded=0;whiteSpace=wrap;html=1;" parent="1" vertex="1">
          <mxGeometry x="5560" y="2807.96" width="120" height="470" as="geometry" />
        </mxCell>
        <mxCell id="HrCCYYtgXBBygM2oDOVi-60" value="&lt;span style=&quot;font-size: 25px;&quot;&gt;Pipe_reg&lt;/span&gt;&lt;div&gt;&lt;span style=&quot;font-size: 25px;&quot;&gt;&lt;br&gt;&lt;/span&gt;&lt;/div&gt;&lt;div&gt;&lt;span style=&quot;font-size: 25px;&quot;&gt;1clk delay&lt;/span&gt;&lt;/div&gt;" style="rounded=0;whiteSpace=wrap;html=1;" parent="1" vertex="1">
          <mxGeometry x="3056.25" y="3021.02" width="102.5" height="207.96" as="geometry" />
        </mxCell>
        <mxCell id="HrCCYYtgXBBygM2oDOVi-64" value="&lt;span&gt;MAG&lt;/span&gt;&lt;div&gt;&lt;br&gt;&lt;/div&gt;&lt;div&gt;1clk 소모&lt;/div&gt;" style="text;html=1;align=center;verticalAlign=middle;whiteSpace=wrap;rounded=0;fontSize=33;" parent="1" vertex="1">
          <mxGeometry x="2886.25" y="3042.36" width="170" height="104" as="geometry" />
        </mxCell>
        <mxCell id="HrCCYYtgXBBygM2oDOVi-65" value="2_in_min[0]" style="whiteSpace=wrap;html=1;aspect=fixed;fontSize=25;" parent="1" vertex="1">
          <mxGeometry x="4962" y="3190" width="130" height="130" as="geometry" />
        </mxCell>
        <mxCell id="HrCCYYtgXBBygM2oDOVi-66" value="" style="endArrow=classic;html=1;rounded=0;exitX=1.013;exitY=0.178;exitDx=0;exitDy=0;exitPerimeter=0;strokeWidth=6;entryX=0.015;entryY=0.486;entryDx=0;entryDy=0;entryPerimeter=0;" parent="1" edge="1">
          <mxGeometry width="50" height="50" relative="1" as="geometry">
            <mxPoint x="5244" y="3196.67" as="sourcePoint" />
            <mxPoint x="5378" y="3196.87" as="targetPoint" />
          </mxGeometry>
        </mxCell>
        <mxCell id="HrCCYYtgXBBygM2oDOVi-67" value="&lt;font style=&quot;font-size: 28px;&quot;&gt;IM&lt;/font&gt;" style="text;html=1;align=center;verticalAlign=middle;whiteSpace=wrap;rounded=0;" parent="1" vertex="1">
          <mxGeometry x="5274" y="3150.67" width="60" height="30" as="geometry" />
        </mxCell>
        <mxCell id="HrCCYYtgXBBygM2oDOVi-68" value="2_in_min[0]" style="whiteSpace=wrap;html=1;aspect=fixed;fontSize=25;" parent="1" vertex="1">
          <mxGeometry x="5110" y="3130" width="130" height="130" as="geometry" />
        </mxCell>
        <mxCell id="HrCCYYtgXBBygM2oDOVi-69" value="" style="endArrow=classic;html=1;rounded=0;exitX=1.013;exitY=0.178;exitDx=0;exitDy=0;exitPerimeter=0;strokeWidth=6;entryX=0.015;entryY=0.486;entryDx=0;entryDy=0;entryPerimeter=0;" parent="1" edge="1">
          <mxGeometry width="50" height="50" relative="1" as="geometry">
            <mxPoint x="5266" y="2890" as="sourcePoint" />
            <mxPoint x="5400" y="2890.2" as="targetPoint" />
          </mxGeometry>
        </mxCell>
        <mxCell id="HrCCYYtgXBBygM2oDOVi-70" value="&lt;font style=&quot;font-size: 22px;&quot;&gt;&lt;b&gt;&lt;span style=&quot;color: rgba(0, 0, 0, 0); font-family: monospace; font-size: 0px; text-align: start; text-wrap-mode: nowrap;&quot;&gt;%3CmxGraphModel%3E%3Croot%3E%3CmxCell%20id%3D%220%22%2F%3E%3CmxCell%20id%3D%221%22%20parent%3D%220%22%2F%3E%3CmxCell%20id%3D%222%22%20value%3D%22%26lt%3Bfont%20style%3D%26quot%3Bfont-size%3A%2022px%3B%26quot%3B%26gt%3B4%26lt%3B%2Ffont%26gt%3B%22%20style%3D%22text%3Bhtml%3D1%3Balign%3Dcenter%3BverticalAlign%3Dmiddle%3BwhiteSpace%3Dwrap%3Brounded%3D0%3B%22%20vertex%3D%221%22%20parent%3D%221%22%3E%3CmxGeometry%20x%3D%223940%22%20y%3D%222434.39%22%20width%3D%2260%22%20height%3D%2230%22%20as%3D%22geometry%22%2F%3E%3C%2FmxCell%3E%3C%2Froot%3E%3C%2FmxGraphModel%3E&lt;/span&gt;RE&lt;/b&gt;&lt;/font&gt;" style="text;html=1;align=center;verticalAlign=middle;whiteSpace=wrap;rounded=0;" parent="1" vertex="1">
          <mxGeometry x="5304" y="2850" width="60" height="30" as="geometry" />
        </mxCell>
        <mxCell id="HrCCYYtgXBBygM2oDOVi-71" value="2_in_min[0]" style="whiteSpace=wrap;html=1;aspect=fixed;fontSize=25;" parent="1" vertex="1">
          <mxGeometry x="4958" y="2901.33" width="130" height="130" as="geometry" />
        </mxCell>
        <mxCell id="HrCCYYtgXBBygM2oDOVi-72" value="2_in_min[0]" style="whiteSpace=wrap;html=1;aspect=fixed;fontSize=25;" parent="1" vertex="1">
          <mxGeometry x="5126" y="2830" width="130" height="130" as="geometry" />
        </mxCell>
        <mxCell id="HrCCYYtgXBBygM2oDOVi-83" value="" style="endArrow=classic;html=1;rounded=0;entryX=0;entryY=0.078;entryDx=0;entryDy=0;entryPerimeter=0;strokeWidth=6;fontSize=25;" parent="1" edge="1">
          <mxGeometry width="50" height="50" relative="1" as="geometry">
            <mxPoint x="3113" y="1770.1999999999998" as="sourcePoint" />
            <mxPoint x="3692" y="1770" as="targetPoint" />
          </mxGeometry>
        </mxCell>
        <mxCell id="HrCCYYtgXBBygM2oDOVi-84" value="dout_R_add_02[0:15][22:0]" style="text;html=1;align=center;verticalAlign=middle;whiteSpace=wrap;rounded=0;fontSize=25;" parent="1" vertex="1">
          <mxGeometry x="3465" y="1710" width="150" height="30" as="geometry" />
        </mxCell>
        <mxCell id="HrCCYYtgXBBygM2oDOVi-87" value="" style="endArrow=classic;html=1;rounded=0;entryX=0;entryY=0.078;entryDx=0;entryDy=0;entryPerimeter=0;strokeWidth=6;fontSize=25;" parent="1" edge="1">
          <mxGeometry width="50" height="50" relative="1" as="geometry">
            <mxPoint x="3083" y="1923.1999999999998" as="sourcePoint" />
            <mxPoint x="3689" y="1923.0399999999995" as="targetPoint" />
          </mxGeometry>
        </mxCell>
        <mxCell id="HrCCYYtgXBBygM2oDOVi-88" value="dout_Q_add_02[0:15][22:0]" style="text;html=1;align=center;verticalAlign=middle;whiteSpace=wrap;rounded=0;fontSize=25;" parent="1" vertex="1">
          <mxGeometry x="3480" y="1850.27" width="150" height="30" as="geometry" />
        </mxCell>
        <mxCell id="HrCCYYtgXBBygM2oDOVi-91" value="" style="endArrow=classic;html=1;rounded=0;entryX=0;entryY=0.078;entryDx=0;entryDy=0;entryPerimeter=0;strokeWidth=6;fontSize=25;" parent="1" edge="1">
          <mxGeometry width="50" height="50" relative="1" as="geometry">
            <mxPoint x="4817" y="1790.1999999999998" as="sourcePoint" />
            <mxPoint x="5396" y="1790" as="targetPoint" />
          </mxGeometry>
        </mxCell>
        <mxCell id="HrCCYYtgXBBygM2oDOVi-92" value="dout_R_add_02[0:15][22:0]" style="text;html=1;align=center;verticalAlign=middle;whiteSpace=wrap;rounded=0;fontSize=25;" parent="1" vertex="1">
          <mxGeometry x="5169" y="1730" width="150" height="30" as="geometry" />
        </mxCell>
        <mxCell id="HrCCYYtgXBBygM2oDOVi-95" value="" style="endArrow=classic;html=1;rounded=0;entryX=0;entryY=0.078;entryDx=0;entryDy=0;entryPerimeter=0;strokeWidth=6;fontSize=25;" parent="1" edge="1">
          <mxGeometry width="50" height="50" relative="1" as="geometry">
            <mxPoint x="4787" y="1943.1999999999998" as="sourcePoint" />
            <mxPoint x="5393" y="1943.0399999999995" as="targetPoint" />
          </mxGeometry>
        </mxCell>
        <mxCell id="HrCCYYtgXBBygM2oDOVi-96" value="dout_Q_add_02[0:15][22:0]" style="text;html=1;align=center;verticalAlign=middle;whiteSpace=wrap;rounded=0;fontSize=25;" parent="1" vertex="1">
          <mxGeometry x="5184" y="1870.27" width="150" height="30" as="geometry" />
        </mxCell>
        <mxCell id="t2iHLjF0f6r9XzdgBtz3-4" style="edgeStyle=orthogonalEdgeStyle;rounded=0;orthogonalLoop=1;jettySize=auto;html=1;exitDx=0;exitDy=0;entryX=0.017;entryY=0.862;entryDx=0;entryDy=0;entryPerimeter=0;" parent="1" source="HrCCYYtgXBBygM2oDOVi-103" target="HrCCYYtgXBBygM2oDOVi-1" edge="1">
          <mxGeometry relative="1" as="geometry">
            <mxPoint x="2253" y="4689" as="targetPoint" />
            <mxPoint x="2038" y="4689" as="sourcePoint" />
          </mxGeometry>
        </mxCell>
        <mxCell id="HrCCYYtgXBBygM2oDOVi-102" value="" style="edgeStyle=orthogonalEdgeStyle;rounded=0;orthogonalLoop=1;jettySize=auto;html=1;exitX=1;exitY=0.5;exitDx=0;exitDy=0;entryDx=0;entryDy=0;entryPerimeter=0;" parent="1" target="HrCCYYtgXBBygM2oDOVi-103" edge="1">
          <mxGeometry relative="1" as="geometry">
            <mxPoint x="2423" y="4689" as="targetPoint" />
            <mxPoint x="2038" y="4689" as="sourcePoint" />
          </mxGeometry>
        </mxCell>
        <mxCell id="HrCCYYtgXBBygM2oDOVi-104" style="edgeStyle=orthogonalEdgeStyle;rounded=0;orthogonalLoop=1;jettySize=auto;html=1;entryX=0.5;entryY=1;entryDx=0;entryDy=0;" parent="1" source="HrCCYYtgXBBygM2oDOVi-103" target="HrCCYYtgXBBygM2oDOVi-20" edge="1">
          <mxGeometry relative="1" as="geometry">
            <Array as="points">
              <mxPoint x="2207" y="5069" />
              <mxPoint x="2983" y="5069" />
            </Array>
          </mxGeometry>
        </mxCell>
        <mxCell id="HrCCYYtgXBBygM2oDOVi-103" value="" style="shape=waypoint;sketch=0;fillStyle=solid;size=6;pointerEvents=1;points=[];fillColor=none;resizable=0;rotatable=0;perimeter=centerPerimeter;snapToPoint=1;" parent="1" vertex="1">
          <mxGeometry x="2197" y="4679" width="20" height="20" as="geometry" />
        </mxCell>
        <mxCell id="HrCCYYtgXBBygM2oDOVi-119" style="edgeStyle=orthogonalEdgeStyle;rounded=0;orthogonalLoop=1;jettySize=auto;html=1;entryX=0.459;entryY=1;entryDx=0;entryDy=0;entryPerimeter=0;" parent="1" source="HrCCYYtgXBBygM2oDOVi-20" target="t2iHLjF0f6r9XzdgBtz3-15" edge="1">
          <mxGeometry relative="1" as="geometry" />
        </mxCell>
        <mxCell id="fPCoFj92QrMG_XCeIt7N-3" style="edgeStyle=orthogonalEdgeStyle;rounded=0;orthogonalLoop=1;jettySize=auto;html=1;exitX=1;exitY=0.5;exitDx=0;exitDy=0;" parent="1" edge="1">
          <mxGeometry relative="1" as="geometry">
            <mxPoint x="7320" y="4730" as="targetPoint" />
            <mxPoint x="5810" y="4700" as="sourcePoint" />
          </mxGeometry>
        </mxCell>
        <mxCell id="fPCoFj92QrMG_XCeIt7N-4" value="&lt;span style=&quot;color: rgb(0, 0, 0); font-family: Helvetica; font-style: normal; font-variant-ligatures: normal; font-variant-caps: normal; font-weight: 400; letter-spacing: normal; orphans: 2; text-align: center; text-indent: 0px; text-transform: none; widows: 2; word-spacing: 0px; -webkit-text-stroke-width: 0px; white-space: nowrap; background-color: rgb(255, 255, 255); text-decoration-thickness: initial; text-decoration-style: initial; text-decoration-color: initial; float: none; display: inline !important;&quot;&gt;&lt;font style=&quot;font-size: 30px;&quot;&gt;VALID_CBFP0&lt;/font&gt;&lt;/span&gt;" style="text;whiteSpace=wrap;html=1;" parent="1" vertex="1">
          <mxGeometry x="5940" y="4640" width="250" height="80" as="geometry" />
        </mxCell>
        <mxCell id="HrCCYYtgXBBygM2oDOVi-138" value="" style="rounded=0;whiteSpace=wrap;html=1;fontSize=33;" parent="1" vertex="1">
          <mxGeometry x="3290" y="3420" width="1134" height="740" as="geometry" />
        </mxCell>
        <mxCell id="HrCCYYtgXBBygM2oDOVi-139" value="2_in_min[0]" style="whiteSpace=wrap;html=1;aspect=fixed;fontSize=25;" parent="1" vertex="1">
          <mxGeometry x="3314" y="3518.98" width="130" height="130" as="geometry" />
        </mxCell>
        <mxCell id="HrCCYYtgXBBygM2oDOVi-140" value="2_in_min[7]" style="whiteSpace=wrap;html=1;aspect=fixed;fontSize=25;" parent="1" vertex="1">
          <mxGeometry x="3313" y="4016.94" width="130" height="130" as="geometry" />
        </mxCell>
        <mxCell id="HrCCYYtgXBBygM2oDOVi-141" value="2_in_min[1]" style="whiteSpace=wrap;html=1;aspect=fixed;fontSize=25;" parent="1" vertex="1">
          <mxGeometry x="3314" y="3647.55" width="130" height="130" as="geometry" />
        </mxCell>
        <mxCell id="HrCCYYtgXBBygM2oDOVi-142" value="2_in_min[6]" style="whiteSpace=wrap;html=1;aspect=fixed;fontSize=25;" parent="1" vertex="1">
          <mxGeometry x="3313" y="3886.94" width="130" height="130" as="geometry" />
        </mxCell>
        <mxCell id="HrCCYYtgXBBygM2oDOVi-143" value="2_in_min[0]" style="whiteSpace=wrap;html=1;aspect=fixed;fontSize=25;" parent="1" vertex="1">
          <mxGeometry x="3505" y="3529.39" width="130" height="130" as="geometry" />
        </mxCell>
        <mxCell id="HrCCYYtgXBBygM2oDOVi-144" value="2_in_min[1]" style="whiteSpace=wrap;html=1;aspect=fixed;fontSize=25;" parent="1" vertex="1">
          <mxGeometry x="3505" y="3690" width="130" height="130" as="geometry" />
        </mxCell>
        <mxCell id="HrCCYYtgXBBygM2oDOVi-145" value="2_in_min[0]" style="whiteSpace=wrap;html=1;aspect=fixed;fontSize=25;" parent="1" vertex="1">
          <mxGeometry x="3895" y="3583" width="130" height="130" as="geometry" />
        </mxCell>
        <mxCell id="HrCCYYtgXBBygM2oDOVi-146" value="2_in_min[0]" style="whiteSpace=wrap;html=1;aspect=fixed;fontSize=25;" parent="1" vertex="1">
          <mxGeometry x="3505" y="3850" width="130" height="130" as="geometry" />
        </mxCell>
        <mxCell id="HrCCYYtgXBBygM2oDOVi-147" value="2_in_min[1]" style="whiteSpace=wrap;html=1;aspect=fixed;fontSize=25;" parent="1" vertex="1">
          <mxGeometry x="3505" y="4007.96" width="130" height="130" as="geometry" />
        </mxCell>
        <mxCell id="HrCCYYtgXBBygM2oDOVi-148" value="2_in_min[0]" style="whiteSpace=wrap;html=1;aspect=fixed;fontSize=25;" parent="1" vertex="1">
          <mxGeometry x="3895" y="3877.96" width="130" height="130" as="geometry" />
        </mxCell>
        <mxCell id="HrCCYYtgXBBygM2oDOVi-149" value="2_in_min[0]" style="whiteSpace=wrap;html=1;aspect=fixed;fontSize=25;" parent="1" vertex="1">
          <mxGeometry x="4140" y="3725" width="130" height="130" as="geometry" />
        </mxCell>
        <mxCell id="HrCCYYtgXBBygM2oDOVi-150" value="&lt;font style=&quot;font-size: 46px;&quot;&gt;4Stage: MIN 비교기_IM&lt;/font&gt;" style="text;html=1;align=center;verticalAlign=middle;whiteSpace=wrap;rounded=0;" parent="1" vertex="1">
          <mxGeometry x="3485" y="3430" width="705" height="70" as="geometry" />
        </mxCell>
        <mxCell id="HrCCYYtgXBBygM2oDOVi-151" value="&lt;span style=&quot;font-size: 25px;&quot;&gt;Pipe_reg&lt;/span&gt;&lt;div&gt;&lt;span style=&quot;font-size: 25px;&quot;&gt;&lt;br&gt;&lt;/span&gt;&lt;/div&gt;&lt;div&gt;&lt;span style=&quot;font-size: 25px;&quot;&gt;1clk delay&lt;/span&gt;&lt;/div&gt;" style="rounded=0;whiteSpace=wrap;html=1;" parent="1" vertex="1">
          <mxGeometry x="3685" y="3529.39" width="120" height="610" as="geometry" />
        </mxCell>
        <mxCell id="HrCCYYtgXBBygM2oDOVi-152" value="&lt;font style=&quot;font-size: 22px;&quot;&gt;16&lt;/font&gt;" style="text;html=1;align=center;verticalAlign=middle;whiteSpace=wrap;rounded=0;" parent="1" vertex="1">
          <mxGeometry x="3334" y="3168.67" width="60" height="30" as="geometry" />
        </mxCell>
        <mxCell id="HrCCYYtgXBBygM2oDOVi-167" value="" style="endArrow=classic;html=1;rounded=0;strokeColor=#FF3333;strokeWidth=16;entryX=0.75;entryY=0;entryDx=0;entryDy=0;" parent="1" target="HrCCYYtgXBBygM2oDOVi-16" edge="1">
          <mxGeometry width="50" height="50" relative="1" as="geometry">
            <mxPoint x="6970" y="1750" as="sourcePoint" />
            <mxPoint x="7230" y="1920" as="targetPoint" />
          </mxGeometry>
        </mxCell>
        <mxCell id="HrCCYYtgXBBygM2oDOVi-168" value="CBFP에 값이 들어오고 scaling factor 나오는데 7clk 걸림" style="text;html=1;align=center;verticalAlign=middle;whiteSpace=wrap;rounded=0;fontSize=50;" parent="1" vertex="1">
          <mxGeometry x="6510" y="1490" width="840" height="330" as="geometry" />
        </mxCell>
        <mxCell id="HrCCYYtgXBBygM2oDOVi-169" value="&lt;span style=&quot;font-size: 33px;&quot;&gt;MOD1_SHIFT_REG&lt;/span&gt;" style="rounded=0;whiteSpace=wrap;html=1;" parent="1" vertex="1">
          <mxGeometry x="6960" y="2510" width="980" height="1112" as="geometry" />
        </mxCell>
        <mxCell id="HrCCYYtgXBBygM2oDOVi-174" value="" style="endArrow=classic;html=1;rounded=0;entryX=0;entryY=0.078;entryDx=0;entryDy=0;entryPerimeter=0;strokeWidth=6;fontSize=25;exitX=0.995;exitY=0.406;exitDx=0;exitDy=0;exitPerimeter=0;" parent="1" source="HrCCYYtgXBBygM2oDOVi-17" edge="1">
          <mxGeometry width="50" height="50" relative="1" as="geometry">
            <mxPoint x="6381" y="2961.85" as="sourcePoint" />
            <mxPoint x="6960" y="2961.65" as="targetPoint" />
          </mxGeometry>
        </mxCell>
        <mxCell id="HrCCYYtgXBBygM2oDOVi-175" value="dout_R_add_02[0:15][10:0]" style="text;html=1;align=center;verticalAlign=middle;whiteSpace=wrap;rounded=0;fontSize=25;" parent="1" vertex="1">
          <mxGeometry x="6733" y="2901.65" width="150" height="30" as="geometry" />
        </mxCell>
        <mxCell id="HrCCYYtgXBBygM2oDOVi-176" value="" style="endArrow=classic;html=1;rounded=0;entryX=0;entryY=0.078;entryDx=0;entryDy=0;entryPerimeter=0;strokeWidth=6;fontSize=25;" parent="1" edge="1">
          <mxGeometry width="50" height="50" relative="1" as="geometry">
            <mxPoint x="6351" y="3114.85" as="sourcePoint" />
            <mxPoint x="6957" y="3114.6899999999996" as="targetPoint" />
          </mxGeometry>
        </mxCell>
        <mxCell id="HrCCYYtgXBBygM2oDOVi-177" value="dout_Q_add_02[0:15][10:0]" style="text;html=1;align=center;verticalAlign=middle;whiteSpace=wrap;rounded=0;fontSize=25;" parent="1" vertex="1">
          <mxGeometry x="6748" y="3041.92" width="150" height="30" as="geometry" />
        </mxCell>
        <mxCell id="e8_aewo6IwP7DNfwToR0-2" value="&lt;font style=&quot;font-size: 300px;&quot;&gt;&lt;b&gt;MODULE0&lt;/b&gt;&lt;/font&gt;" style="text;html=1;align=center;verticalAlign=middle;whiteSpace=wrap;rounded=0;" parent="1" vertex="1">
          <mxGeometry x="1980" y="20" width="1890" height="900" as="geometry" />
        </mxCell>
        <mxCell id="e8_aewo6IwP7DNfwToR0-3" value="" style="rounded=0;whiteSpace=wrap;html=1;" parent="1" vertex="1">
          <mxGeometry x="-4230" y="2646.36" width="1080" height="1040" as="geometry" />
        </mxCell>
        <mxCell id="e8_aewo6IwP7DNfwToR0-4" value="Shift_REG_256" style="rounded=0;whiteSpace=wrap;html=1;fontSize=23;" parent="1" vertex="1">
          <mxGeometry x="-4175" y="2686.36" width="230" height="630" as="geometry" />
        </mxCell>
        <mxCell id="e8_aewo6IwP7DNfwToR0-5" value="" style="endArrow=classic;html=1;rounded=0;entryX=0;entryY=0.078;entryDx=0;entryDy=0;entryPerimeter=0;strokeWidth=6;" parent="1" edge="1">
          <mxGeometry width="50" height="50" relative="1" as="geometry">
            <mxPoint x="-4440" y="2796.36" as="sourcePoint" />
            <mxPoint x="-4230" y="2796.56" as="targetPoint" />
          </mxGeometry>
        </mxCell>
        <mxCell id="e8_aewo6IwP7DNfwToR0-6" value="BF2I" style="rounded=0;whiteSpace=wrap;html=1;fontSize=23;" parent="1" vertex="1">
          <mxGeometry x="-3806" y="2686.36" width="230" height="630" as="geometry" />
        </mxCell>
        <mxCell id="e8_aewo6IwP7DNfwToR0-7" value="MUL_FAC8_0" style="rounded=0;whiteSpace=wrap;html=1;fontSize=23;" parent="1" vertex="1">
          <mxGeometry x="-3460" y="2686.36" width="230" height="630" as="geometry" />
        </mxCell>
        <mxCell id="e8_aewo6IwP7DNfwToR0-8" value="" style="rounded=0;whiteSpace=wrap;html=1;" parent="1" vertex="1">
          <mxGeometry x="-4180" y="3376.36" width="960" height="280" as="geometry" />
        </mxCell>
        <mxCell id="e8_aewo6IwP7DNfwToR0-9" value="CNT_5B" style="rounded=0;whiteSpace=wrap;html=1;fontSize=23;" parent="1" vertex="1">
          <mxGeometry x="-4110" y="3426.36" width="145" height="160" as="geometry" />
        </mxCell>
        <mxCell id="e8_aewo6IwP7DNfwToR0-10" style="edgeStyle=orthogonalEdgeStyle;rounded=0;orthogonalLoop=1;jettySize=auto;html=1;exitX=1;exitY=0.5;exitDx=0;exitDy=0;" parent="1" source="e8_aewo6IwP7DNfwToR0-11" edge="1">
          <mxGeometry relative="1" as="geometry">
            <mxPoint x="-3000" y="3496.36" as="targetPoint" />
          </mxGeometry>
        </mxCell>
        <mxCell id="e8_aewo6IwP7DNfwToR0-11" value="&lt;font style=&quot;font-size: 20px;&quot;&gt;CTRL_FAC8_0&lt;/font&gt;" style="rounded=0;whiteSpace=wrap;html=1;fontSize=23;" parent="1" vertex="1">
          <mxGeometry x="-3460" y="3415.36" width="145" height="160" as="geometry" />
        </mxCell>
        <mxCell id="e8_aewo6IwP7DNfwToR0-12" value="din_R[0:15][8:0]" style="text;html=1;align=center;verticalAlign=middle;whiteSpace=wrap;rounded=0;" parent="1" vertex="1">
          <mxGeometry x="-4390" y="2756.36" width="110" height="30" as="geometry" />
        </mxCell>
        <mxCell id="e8_aewo6IwP7DNfwToR0-13" value="" style="endArrow=classic;html=1;rounded=0;entryX=0;entryY=0.078;entryDx=0;entryDy=0;entryPerimeter=0;strokeWidth=6;" parent="1" edge="1">
          <mxGeometry width="50" height="50" relative="1" as="geometry">
            <mxPoint x="-4440" y="2856.36" as="sourcePoint" />
            <mxPoint x="-4230" y="2856.56" as="targetPoint" />
          </mxGeometry>
        </mxCell>
        <mxCell id="e8_aewo6IwP7DNfwToR0-14" value="din_Q[0:15][8:0]" style="text;html=1;align=center;verticalAlign=middle;whiteSpace=wrap;rounded=0;" parent="1" vertex="1">
          <mxGeometry x="-4390" y="2816.36" width="110" height="30" as="geometry" />
        </mxCell>
        <mxCell id="e8_aewo6IwP7DNfwToR0-15" value="" style="endArrow=classic;html=1;rounded=0;entryX=0;entryY=0.078;entryDx=0;entryDy=0;entryPerimeter=0;exitX=1.013;exitY=0.178;exitDx=0;exitDy=0;exitPerimeter=0;strokeWidth=6;" parent="1" source="e8_aewo6IwP7DNfwToR0-7" edge="1">
          <mxGeometry width="50" height="50" relative="1" as="geometry">
            <mxPoint x="-3150" y="2796.36" as="sourcePoint" />
            <mxPoint x="-2940" y="2796.56" as="targetPoint" />
          </mxGeometry>
        </mxCell>
        <mxCell id="e8_aewo6IwP7DNfwToR0-16" value="dout_R_add_00[0:15][9:0]" style="text;html=1;align=center;verticalAlign=middle;whiteSpace=wrap;rounded=0;" parent="1" vertex="1">
          <mxGeometry x="-3100" y="2756.36" width="150" height="30" as="geometry" />
        </mxCell>
        <mxCell id="e8_aewo6IwP7DNfwToR0-17" value="" style="endArrow=classic;html=1;rounded=0;entryX=0;entryY=0.078;entryDx=0;entryDy=0;entryPerimeter=0;exitX=1;exitY=0.265;exitDx=0;exitDy=0;exitPerimeter=0;strokeWidth=6;" parent="1" source="e8_aewo6IwP7DNfwToR0-7" edge="1">
          <mxGeometry width="50" height="50" relative="1" as="geometry">
            <mxPoint x="-3150" y="2856.36" as="sourcePoint" />
            <mxPoint x="-2940" y="2856.56" as="targetPoint" />
          </mxGeometry>
        </mxCell>
        <mxCell id="e8_aewo6IwP7DNfwToR0-18" value="dout_R_sub_00[0:15][9:0]" style="text;html=1;align=center;verticalAlign=middle;whiteSpace=wrap;rounded=0;" parent="1" vertex="1">
          <mxGeometry x="-3100" y="2816.36" width="150" height="30" as="geometry" />
        </mxCell>
        <mxCell id="e8_aewo6IwP7DNfwToR0-19" value="" style="endArrow=classic;html=1;rounded=0;entryX=0;entryY=0.078;entryDx=0;entryDy=0;entryPerimeter=0;exitX=1;exitY=0.365;exitDx=0;exitDy=0;exitPerimeter=0;strokeWidth=6;" parent="1" source="e8_aewo6IwP7DNfwToR0-7" edge="1">
          <mxGeometry width="50" height="50" relative="1" as="geometry">
            <mxPoint x="-3150" y="2916.36" as="sourcePoint" />
            <mxPoint x="-2940" y="2916.56" as="targetPoint" />
          </mxGeometry>
        </mxCell>
        <mxCell id="e8_aewo6IwP7DNfwToR0-20" value="dout_Q_add_00[0:15][9:0]" style="text;html=1;align=center;verticalAlign=middle;whiteSpace=wrap;rounded=0;" parent="1" vertex="1">
          <mxGeometry x="-3100" y="2876.36" width="150" height="30" as="geometry" />
        </mxCell>
        <mxCell id="e8_aewo6IwP7DNfwToR0-21" value="" style="endArrow=classic;html=1;rounded=0;entryX=0;entryY=0.078;entryDx=0;entryDy=0;entryPerimeter=0;exitX=0.996;exitY=0.459;exitDx=0;exitDy=0;exitPerimeter=0;strokeWidth=6;" parent="1" source="e8_aewo6IwP7DNfwToR0-7" edge="1">
          <mxGeometry width="50" height="50" relative="1" as="geometry">
            <mxPoint x="-3150" y="2976.36" as="sourcePoint" />
            <mxPoint x="-2940" y="2976.56" as="targetPoint" />
          </mxGeometry>
        </mxCell>
        <mxCell id="e8_aewo6IwP7DNfwToR0-22" value="dout_Q_sub_00[0:15][9:0]" style="text;html=1;align=center;verticalAlign=middle;whiteSpace=wrap;rounded=0;" parent="1" vertex="1">
          <mxGeometry x="-3100" y="2936.36" width="150" height="30" as="geometry" />
        </mxCell>
        <mxCell id="e8_aewo6IwP7DNfwToR0-23" value="" style="ellipse;whiteSpace=wrap;html=1;aspect=fixed;" parent="1" vertex="1">
          <mxGeometry x="-4290" y="3575.36" width="60" height="60" as="geometry" />
        </mxCell>
        <mxCell id="e8_aewo6IwP7DNfwToR0-24" value="" style="endArrow=classic;html=1;rounded=0;" parent="1" edge="1">
          <mxGeometry width="50" height="50" relative="1" as="geometry">
            <mxPoint x="-4380" y="3606.36" as="sourcePoint" />
            <mxPoint x="-4290" y="3606.36" as="targetPoint" />
          </mxGeometry>
        </mxCell>
        <mxCell id="e8_aewo6IwP7DNfwToR0-25" value="" style="endArrow=classic;html=1;rounded=0;" parent="1" edge="1">
          <mxGeometry width="50" height="50" relative="1" as="geometry">
            <mxPoint x="-4380" y="3540.36" as="sourcePoint" />
            <mxPoint x="-4230" y="3540.36" as="targetPoint" />
          </mxGeometry>
        </mxCell>
        <mxCell id="e8_aewo6IwP7DNfwToR0-26" value="" style="triangle;whiteSpace=wrap;html=1;" parent="1" vertex="1">
          <mxGeometry x="-4230" y="3516.36" width="30" height="49" as="geometry" />
        </mxCell>
        <mxCell id="e8_aewo6IwP7DNfwToR0-27" value="CLK" style="text;html=1;align=center;verticalAlign=middle;whiteSpace=wrap;rounded=0;" parent="1" vertex="1">
          <mxGeometry x="-4380" y="3501.36" width="110" height="30" as="geometry" />
        </mxCell>
        <mxCell id="e8_aewo6IwP7DNfwToR0-28" value="RSTN" style="text;html=1;align=center;verticalAlign=middle;whiteSpace=wrap;rounded=0;" parent="1" vertex="1">
          <mxGeometry x="-4380" y="3565.36" width="110" height="30" as="geometry" />
        </mxCell>
        <mxCell id="e8_aewo6IwP7DNfwToR0-29" value="" style="endArrow=classic;html=1;rounded=0;strokeWidth=6;" parent="1" edge="1">
          <mxGeometry width="50" height="50" relative="1" as="geometry">
            <mxPoint x="-3950" y="2796.36" as="sourcePoint" />
            <mxPoint x="-3810" y="2796.36" as="targetPoint" />
          </mxGeometry>
        </mxCell>
        <mxCell id="e8_aewo6IwP7DNfwToR0-30" value="dout_R[0:15][8:0] = R1" style="text;html=1;align=center;verticalAlign=middle;whiteSpace=wrap;rounded=0;" parent="1" vertex="1">
          <mxGeometry x="-3930" y="2756.36" width="110" height="30" as="geometry" />
        </mxCell>
        <mxCell id="e8_aewo6IwP7DNfwToR0-31" value="" style="endArrow=classic;html=1;rounded=0;strokeWidth=6;" parent="1" edge="1">
          <mxGeometry width="50" height="50" relative="1" as="geometry">
            <mxPoint x="-3950" y="2845.36" as="sourcePoint" />
            <mxPoint x="-3810" y="2845.36" as="targetPoint" />
          </mxGeometry>
        </mxCell>
        <mxCell id="e8_aewo6IwP7DNfwToR0-32" value="dout_Q[0:15][8:0] = Q1" style="text;html=1;align=center;verticalAlign=middle;whiteSpace=wrap;rounded=0;" parent="1" vertex="1">
          <mxGeometry x="-3930" y="2805.36" width="110" height="30" as="geometry" />
        </mxCell>
        <mxCell id="e8_aewo6IwP7DNfwToR0-33" value="" style="endArrow=classic;html=1;rounded=0;strokeWidth=6;" parent="1" edge="1">
          <mxGeometry width="50" height="50" relative="1" as="geometry">
            <mxPoint x="-3950" y="2905.36" as="sourcePoint" />
            <mxPoint x="-3810" y="2905.36" as="targetPoint" />
          </mxGeometry>
        </mxCell>
        <mxCell id="e8_aewo6IwP7DNfwToR0-34" value="din_R[0:15][8:0] = R2" style="text;html=1;align=center;verticalAlign=middle;whiteSpace=wrap;rounded=0;" parent="1" vertex="1">
          <mxGeometry x="-3930" y="2865.36" width="110" height="30" as="geometry" />
        </mxCell>
        <mxCell id="e8_aewo6IwP7DNfwToR0-35" value="" style="endArrow=classic;html=1;rounded=0;strokeWidth=6;" parent="1" edge="1">
          <mxGeometry width="50" height="50" relative="1" as="geometry">
            <mxPoint x="-3950" y="2965.36" as="sourcePoint" />
            <mxPoint x="-3810" y="2966.36" as="targetPoint" />
          </mxGeometry>
        </mxCell>
        <mxCell id="e8_aewo6IwP7DNfwToR0-36" value="din_Q[0:15][8:0] = Q2" style="text;html=1;align=center;verticalAlign=middle;whiteSpace=wrap;rounded=0;" parent="1" vertex="1">
          <mxGeometry x="-3930" y="2925.36" width="110" height="30" as="geometry" />
        </mxCell>
        <mxCell id="e8_aewo6IwP7DNfwToR0-37" value="" style="endArrow=classic;html=1;rounded=0;strokeWidth=6;" parent="1" edge="1">
          <mxGeometry width="50" height="50" relative="1" as="geometry">
            <mxPoint x="-3576" y="2826.36" as="sourcePoint" />
            <mxPoint x="-3460" y="2826.36" as="targetPoint" />
          </mxGeometry>
        </mxCell>
        <mxCell id="e8_aewo6IwP7DNfwToR0-38" value="dout_R_add[0:15][9:0]" style="text;html=1;align=center;verticalAlign=middle;whiteSpace=wrap;rounded=0;" parent="1" vertex="1">
          <mxGeometry x="-3590" y="2786.36" width="150" height="30" as="geometry" />
        </mxCell>
        <mxCell id="e8_aewo6IwP7DNfwToR0-39" value="" style="endArrow=classic;html=1;rounded=0;entryX=-0.004;entryY=0.316;entryDx=0;entryDy=0;entryPerimeter=0;strokeWidth=6;" parent="1" target="e8_aewo6IwP7DNfwToR0-7" edge="1">
          <mxGeometry width="50" height="50" relative="1" as="geometry">
            <mxPoint x="-3576" y="2886.36" as="sourcePoint" />
            <mxPoint x="-3366" y="2886.56" as="targetPoint" />
          </mxGeometry>
        </mxCell>
        <mxCell id="e8_aewo6IwP7DNfwToR0-40" value="dout_R_sub_00[0:15][9:0]" style="text;html=1;align=center;verticalAlign=middle;whiteSpace=wrap;rounded=0;" parent="1" vertex="1">
          <mxGeometry x="-3590" y="2846.36" width="150" height="30" as="geometry" />
        </mxCell>
        <mxCell id="e8_aewo6IwP7DNfwToR0-41" value="" style="endArrow=classic;html=1;rounded=0;strokeWidth=6;" parent="1" edge="1">
          <mxGeometry width="50" height="50" relative="1" as="geometry">
            <mxPoint x="-3576" y="2946.36" as="sourcePoint" />
            <mxPoint x="-3460" y="2946.36" as="targetPoint" />
          </mxGeometry>
        </mxCell>
        <mxCell id="e8_aewo6IwP7DNfwToR0-42" value="dout_Q_add_00[0:15][9:0]" style="text;html=1;align=center;verticalAlign=middle;whiteSpace=wrap;rounded=0;" parent="1" vertex="1">
          <mxGeometry x="-3590" y="2906.36" width="150" height="30" as="geometry" />
        </mxCell>
        <mxCell id="e8_aewo6IwP7DNfwToR0-43" value="" style="endArrow=classic;html=1;rounded=0;entryX=-0.004;entryY=0.511;entryDx=0;entryDy=0;entryPerimeter=0;strokeWidth=6;" parent="1" target="e8_aewo6IwP7DNfwToR0-7" edge="1">
          <mxGeometry width="50" height="50" relative="1" as="geometry">
            <mxPoint x="-3576" y="3006.36" as="sourcePoint" />
            <mxPoint x="-3366" y="3006.56" as="targetPoint" />
          </mxGeometry>
        </mxCell>
        <mxCell id="e8_aewo6IwP7DNfwToR0-44" value="dout_Q_sub_00[0:15][9:0]" style="text;html=1;align=center;verticalAlign=middle;whiteSpace=wrap;rounded=0;" parent="1" vertex="1">
          <mxGeometry x="-3590" y="2966.36" width="150" height="30" as="geometry" />
        </mxCell>
        <mxCell id="e8_aewo6IwP7DNfwToR0-45" style="edgeStyle=orthogonalEdgeStyle;rounded=0;orthogonalLoop=1;jettySize=auto;html=1;entryX=0;entryY=0.5;entryDx=0;entryDy=0;" parent="1" source="e8_aewo6IwP7DNfwToR0-51" target="e8_aewo6IwP7DNfwToR0-11" edge="1">
          <mxGeometry relative="1" as="geometry" />
        </mxCell>
        <mxCell id="e8_aewo6IwP7DNfwToR0-46" value="BF_EN" style="rounded=0;whiteSpace=wrap;html=1;fontSize=23;" parent="1" vertex="1">
          <mxGeometry x="-3750" y="3415.36" width="145" height="160" as="geometry" />
        </mxCell>
        <mxCell id="e8_aewo6IwP7DNfwToR0-47" style="edgeStyle=orthogonalEdgeStyle;rounded=0;orthogonalLoop=1;jettySize=auto;html=1;exitX=1;exitY=0.5;exitDx=0;exitDy=0;entryX=0;entryY=0.569;entryDx=0;entryDy=0;entryPerimeter=0;" parent="1" source="e8_aewo6IwP7DNfwToR0-9" target="e8_aewo6IwP7DNfwToR0-46" edge="1">
          <mxGeometry relative="1" as="geometry" />
        </mxCell>
        <mxCell id="e8_aewo6IwP7DNfwToR0-48" value="CNT[4]" style="text;html=1;align=center;verticalAlign=middle;whiteSpace=wrap;rounded=0;" parent="1" vertex="1">
          <mxGeometry x="-3910" y="3466.36" width="110" height="30" as="geometry" />
        </mxCell>
        <mxCell id="e8_aewo6IwP7DNfwToR0-49" value="bf_en" style="text;html=1;align=center;verticalAlign=middle;whiteSpace=wrap;rounded=0;" parent="1" vertex="1">
          <mxGeometry x="-3590" y="3501.36" width="110" height="30" as="geometry" />
        </mxCell>
        <mxCell id="e8_aewo6IwP7DNfwToR0-50" value="" style="edgeStyle=orthogonalEdgeStyle;rounded=0;orthogonalLoop=1;jettySize=auto;html=1;entryDx=0;entryDy=0;" parent="1" source="e8_aewo6IwP7DNfwToR0-46" target="e8_aewo6IwP7DNfwToR0-51" edge="1">
          <mxGeometry relative="1" as="geometry">
            <mxPoint x="-3605" y="3495.36" as="sourcePoint" />
            <mxPoint x="-3460" y="3495.36" as="targetPoint" />
          </mxGeometry>
        </mxCell>
        <mxCell id="e8_aewo6IwP7DNfwToR0-51" value="" style="shape=waypoint;sketch=0;fillStyle=solid;size=6;pointerEvents=1;points=[];fillColor=none;resizable=0;rotatable=0;perimeter=centerPerimeter;snapToPoint=1;" parent="1" vertex="1">
          <mxGeometry x="-3540" y="3486.36" width="20" height="20" as="geometry" />
        </mxCell>
        <mxCell id="e8_aewo6IwP7DNfwToR0-52" style="edgeStyle=orthogonalEdgeStyle;rounded=0;orthogonalLoop=1;jettySize=auto;html=1;entryX=0.983;entryY=0.994;entryDx=0;entryDy=0;entryPerimeter=0;" parent="1" source="e8_aewo6IwP7DNfwToR0-51" target="e8_aewo6IwP7DNfwToR0-6" edge="1">
          <mxGeometry relative="1" as="geometry">
            <mxPoint x="-3570" y="3312.36" as="targetPoint" />
            <Array as="points">
              <mxPoint x="-3530" y="3312.36" />
            </Array>
          </mxGeometry>
        </mxCell>
        <mxCell id="e8_aewo6IwP7DNfwToR0-53" style="edgeStyle=orthogonalEdgeStyle;rounded=0;orthogonalLoop=1;jettySize=auto;html=1;exitX=0.5;exitY=0;exitDx=0;exitDy=0;entryX=0.317;entryY=0.998;entryDx=0;entryDy=0;entryPerimeter=0;" parent="1" source="e8_aewo6IwP7DNfwToR0-11" target="e8_aewo6IwP7DNfwToR0-7" edge="1">
          <mxGeometry relative="1" as="geometry" />
        </mxCell>
        <mxCell id="e8_aewo6IwP7DNfwToR0-54" value="valid_fac8_0" style="text;html=1;align=center;verticalAlign=middle;whiteSpace=wrap;rounded=0;" parent="1" vertex="1">
          <mxGeometry x="-3400" y="3336.36" width="110" height="30" as="geometry" />
        </mxCell>
        <mxCell id="e8_aewo6IwP7DNfwToR0-55" value="alert_mod01" style="text;html=1;align=center;verticalAlign=middle;whiteSpace=wrap;rounded=0;" parent="1" vertex="1">
          <mxGeometry x="-3150" y="3456.36" width="110" height="30" as="geometry" />
        </mxCell>
        <mxCell id="e8_aewo6IwP7DNfwToR0-56" value="&lt;b&gt;MOD0_0&lt;/b&gt;" style="text;html=1;align=center;verticalAlign=middle;whiteSpace=wrap;rounded=0;fontSize=38;" parent="1" vertex="1">
          <mxGeometry x="-3760" y="2576.36" width="200" height="70" as="geometry" />
        </mxCell>
        <mxCell id="e8_aewo6IwP7DNfwToR0-57" value="" style="endArrow=classic;html=1;rounded=0;entryX=0;entryY=0.25;entryDx=0;entryDy=0;" parent="1" target="e8_aewo6IwP7DNfwToR0-9" edge="1">
          <mxGeometry width="50" height="50" relative="1" as="geometry">
            <mxPoint x="-4480" y="3466.36" as="sourcePoint" />
            <mxPoint x="-4230" y="3435.36" as="targetPoint" />
          </mxGeometry>
        </mxCell>
        <mxCell id="e8_aewo6IwP7DNfwToR0-58" value="VALID" style="text;html=1;align=center;verticalAlign=middle;whiteSpace=wrap;rounded=0;" parent="1" vertex="1">
          <mxGeometry x="-4380" y="3396.36" width="110" height="30" as="geometry" />
        </mxCell>
        <mxCell id="e8_aewo6IwP7DNfwToR0-59" value="" style="rounded=0;whiteSpace=wrap;html=1;" parent="1" vertex="1">
          <mxGeometry x="-3420" y="8180" width="1080" height="1040" as="geometry" />
        </mxCell>
        <mxCell id="e8_aewo6IwP7DNfwToR0-60" value="Shift_REG_32" style="rounded=0;whiteSpace=wrap;html=1;fontSize=23;" parent="1" vertex="1">
          <mxGeometry x="-3370" y="8220" width="230" height="630" as="geometry" />
        </mxCell>
        <mxCell id="e8_aewo6IwP7DNfwToR0-61" value="" style="endArrow=classic;html=1;rounded=0;entryX=0;entryY=0.078;entryDx=0;entryDy=0;entryPerimeter=0;strokeWidth=6;" parent="1" edge="1">
          <mxGeometry width="50" height="50" relative="1" as="geometry">
            <mxPoint x="-3630" y="8330" as="sourcePoint" />
            <mxPoint x="-3420" y="8330.199999999999" as="targetPoint" />
          </mxGeometry>
        </mxCell>
        <mxCell id="e8_aewo6IwP7DNfwToR0-62" value="BF2I" style="rounded=0;whiteSpace=wrap;html=1;fontSize=23;" parent="1" vertex="1">
          <mxGeometry x="-2996" y="8220" width="230" height="630" as="geometry" />
        </mxCell>
        <mxCell id="e8_aewo6IwP7DNfwToR0-63" value="MUL_FAC8_0" style="rounded=0;whiteSpace=wrap;html=1;fontSize=23;" parent="1" vertex="1">
          <mxGeometry x="-2650" y="8220" width="230" height="630" as="geometry" />
        </mxCell>
        <mxCell id="e8_aewo6IwP7DNfwToR0-64" value="" style="rounded=0;whiteSpace=wrap;html=1;" parent="1" vertex="1">
          <mxGeometry x="-3370" y="8910" width="960" height="280" as="geometry" />
        </mxCell>
        <mxCell id="e8_aewo6IwP7DNfwToR0-65" value="CNT_2B" style="rounded=0;whiteSpace=wrap;html=1;fontSize=23;" parent="1" vertex="1">
          <mxGeometry x="-3300" y="8960" width="145" height="160" as="geometry" />
        </mxCell>
        <mxCell id="e8_aewo6IwP7DNfwToR0-66" style="edgeStyle=orthogonalEdgeStyle;rounded=0;orthogonalLoop=1;jettySize=auto;html=1;exitX=1;exitY=0.5;exitDx=0;exitDy=0;" parent="1" source="e8_aewo6IwP7DNfwToR0-67" edge="1">
          <mxGeometry relative="1" as="geometry">
            <mxPoint x="-2190" y="9030" as="targetPoint" />
          </mxGeometry>
        </mxCell>
        <mxCell id="e8_aewo6IwP7DNfwToR0-67" value="&lt;font style=&quot;font-size: 20px;&quot;&gt;CTRL_FAC8_0&lt;/font&gt;" style="rounded=0;whiteSpace=wrap;html=1;fontSize=23;" parent="1" vertex="1">
          <mxGeometry x="-2650" y="8949" width="145" height="160" as="geometry" />
        </mxCell>
        <mxCell id="e8_aewo6IwP7DNfwToR0-68" value="din_R[0:15][10:0]" style="text;html=1;align=center;verticalAlign=middle;whiteSpace=wrap;rounded=0;" parent="1" vertex="1">
          <mxGeometry x="-3580" y="8290" width="110" height="30" as="geometry" />
        </mxCell>
        <mxCell id="e8_aewo6IwP7DNfwToR0-69" value="" style="endArrow=classic;html=1;rounded=0;entryX=0;entryY=0.078;entryDx=0;entryDy=0;entryPerimeter=0;strokeWidth=6;" parent="1" edge="1">
          <mxGeometry width="50" height="50" relative="1" as="geometry">
            <mxPoint x="-3630" y="8390" as="sourcePoint" />
            <mxPoint x="-3420" y="8390.199999999999" as="targetPoint" />
          </mxGeometry>
        </mxCell>
        <mxCell id="e8_aewo6IwP7DNfwToR0-70" value="din_Q[0:15][10:0]" style="text;html=1;align=center;verticalAlign=middle;whiteSpace=wrap;rounded=0;" parent="1" vertex="1">
          <mxGeometry x="-3580" y="8350" width="110" height="30" as="geometry" />
        </mxCell>
        <mxCell id="e8_aewo6IwP7DNfwToR0-71" value="" style="endArrow=classic;html=1;rounded=0;entryX=0;entryY=0.078;entryDx=0;entryDy=0;entryPerimeter=0;exitX=1.013;exitY=0.178;exitDx=0;exitDy=0;exitPerimeter=0;strokeWidth=6;" parent="1" source="e8_aewo6IwP7DNfwToR0-63" edge="1">
          <mxGeometry width="50" height="50" relative="1" as="geometry">
            <mxPoint x="-2340" y="8330" as="sourcePoint" />
            <mxPoint x="-2130" y="8330.199999999999" as="targetPoint" />
          </mxGeometry>
        </mxCell>
        <mxCell id="e8_aewo6IwP7DNfwToR0-72" value="dout_R_add_10[0:15][11:0]" style="text;html=1;align=center;verticalAlign=middle;whiteSpace=wrap;rounded=0;" parent="1" vertex="1">
          <mxGeometry x="-2290" y="8290" width="150" height="30" as="geometry" />
        </mxCell>
        <mxCell id="e8_aewo6IwP7DNfwToR0-73" value="" style="endArrow=classic;html=1;rounded=0;entryX=0;entryY=0.078;entryDx=0;entryDy=0;entryPerimeter=0;exitX=1;exitY=0.265;exitDx=0;exitDy=0;exitPerimeter=0;strokeWidth=6;" parent="1" source="e8_aewo6IwP7DNfwToR0-63" edge="1">
          <mxGeometry width="50" height="50" relative="1" as="geometry">
            <mxPoint x="-2340" y="8390" as="sourcePoint" />
            <mxPoint x="-2130" y="8390.199999999999" as="targetPoint" />
          </mxGeometry>
        </mxCell>
        <mxCell id="e8_aewo6IwP7DNfwToR0-74" value="dout_R_sub_10[0:15][11:0]" style="text;html=1;align=center;verticalAlign=middle;whiteSpace=wrap;rounded=0;" parent="1" vertex="1">
          <mxGeometry x="-2290" y="8350" width="150" height="30" as="geometry" />
        </mxCell>
        <mxCell id="e8_aewo6IwP7DNfwToR0-75" value="" style="endArrow=classic;html=1;rounded=0;entryX=0;entryY=0.078;entryDx=0;entryDy=0;entryPerimeter=0;exitX=1;exitY=0.365;exitDx=0;exitDy=0;exitPerimeter=0;strokeWidth=6;" parent="1" source="e8_aewo6IwP7DNfwToR0-63" edge="1">
          <mxGeometry width="50" height="50" relative="1" as="geometry">
            <mxPoint x="-2340" y="8450" as="sourcePoint" />
            <mxPoint x="-2130" y="8450.199999999999" as="targetPoint" />
          </mxGeometry>
        </mxCell>
        <mxCell id="e8_aewo6IwP7DNfwToR0-76" value="dout_Q_add_10[0:15][11:0]" style="text;html=1;align=center;verticalAlign=middle;whiteSpace=wrap;rounded=0;" parent="1" vertex="1">
          <mxGeometry x="-2290" y="8410" width="150" height="30" as="geometry" />
        </mxCell>
        <mxCell id="e8_aewo6IwP7DNfwToR0-77" value="" style="endArrow=classic;html=1;rounded=0;entryX=0;entryY=0.078;entryDx=0;entryDy=0;entryPerimeter=0;exitX=0.996;exitY=0.459;exitDx=0;exitDy=0;exitPerimeter=0;strokeWidth=6;" parent="1" source="e8_aewo6IwP7DNfwToR0-63" edge="1">
          <mxGeometry width="50" height="50" relative="1" as="geometry">
            <mxPoint x="-2340" y="8510" as="sourcePoint" />
            <mxPoint x="-2130" y="8510.199999999999" as="targetPoint" />
          </mxGeometry>
        </mxCell>
        <mxCell id="e8_aewo6IwP7DNfwToR0-78" value="dout_Q_sub_10[0:15][11:0]" style="text;html=1;align=center;verticalAlign=middle;whiteSpace=wrap;rounded=0;" parent="1" vertex="1">
          <mxGeometry x="-2290" y="8470" width="150" height="30" as="geometry" />
        </mxCell>
        <mxCell id="e8_aewo6IwP7DNfwToR0-79" value="" style="ellipse;whiteSpace=wrap;html=1;aspect=fixed;" parent="1" vertex="1">
          <mxGeometry x="-3480" y="9109" width="60" height="60" as="geometry" />
        </mxCell>
        <mxCell id="e8_aewo6IwP7DNfwToR0-80" value="" style="endArrow=classic;html=1;rounded=0;" parent="1" edge="1">
          <mxGeometry width="50" height="50" relative="1" as="geometry">
            <mxPoint x="-3570" y="9140" as="sourcePoint" />
            <mxPoint x="-3480" y="9140" as="targetPoint" />
          </mxGeometry>
        </mxCell>
        <mxCell id="e8_aewo6IwP7DNfwToR0-81" value="" style="endArrow=classic;html=1;rounded=0;" parent="1" edge="1">
          <mxGeometry width="50" height="50" relative="1" as="geometry">
            <mxPoint x="-3570" y="9074" as="sourcePoint" />
            <mxPoint x="-3420" y="9074" as="targetPoint" />
          </mxGeometry>
        </mxCell>
        <mxCell id="e8_aewo6IwP7DNfwToR0-82" value="" style="triangle;whiteSpace=wrap;html=1;" parent="1" vertex="1">
          <mxGeometry x="-3420" y="9050" width="30" height="49" as="geometry" />
        </mxCell>
        <mxCell id="e8_aewo6IwP7DNfwToR0-83" value="CLK" style="text;html=1;align=center;verticalAlign=middle;whiteSpace=wrap;rounded=0;" parent="1" vertex="1">
          <mxGeometry x="-3570" y="9035" width="110" height="30" as="geometry" />
        </mxCell>
        <mxCell id="e8_aewo6IwP7DNfwToR0-84" value="RSTN" style="text;html=1;align=center;verticalAlign=middle;whiteSpace=wrap;rounded=0;" parent="1" vertex="1">
          <mxGeometry x="-3570" y="9099" width="110" height="30" as="geometry" />
        </mxCell>
        <mxCell id="e8_aewo6IwP7DNfwToR0-85" value="" style="endArrow=classic;html=1;rounded=0;strokeWidth=6;" parent="1" edge="1">
          <mxGeometry width="50" height="50" relative="1" as="geometry">
            <mxPoint x="-3140" y="8330" as="sourcePoint" />
            <mxPoint x="-3000" y="8330" as="targetPoint" />
          </mxGeometry>
        </mxCell>
        <mxCell id="e8_aewo6IwP7DNfwToR0-86" value="dout_R[0:15][10:0] = R1" style="text;html=1;align=center;verticalAlign=middle;whiteSpace=wrap;rounded=0;" parent="1" vertex="1">
          <mxGeometry x="-3120" y="8290" width="110" height="30" as="geometry" />
        </mxCell>
        <mxCell id="e8_aewo6IwP7DNfwToR0-87" value="" style="endArrow=classic;html=1;rounded=0;strokeWidth=6;" parent="1" edge="1">
          <mxGeometry width="50" height="50" relative="1" as="geometry">
            <mxPoint x="-3140" y="8379" as="sourcePoint" />
            <mxPoint x="-3000" y="8379" as="targetPoint" />
          </mxGeometry>
        </mxCell>
        <mxCell id="e8_aewo6IwP7DNfwToR0-88" value="dout_Q[0:15][10:0] = Q1" style="text;html=1;align=center;verticalAlign=middle;whiteSpace=wrap;rounded=0;" parent="1" vertex="1">
          <mxGeometry x="-3120" y="8339" width="110" height="30" as="geometry" />
        </mxCell>
        <mxCell id="e8_aewo6IwP7DNfwToR0-89" value="" style="endArrow=classic;html=1;rounded=0;strokeWidth=6;" parent="1" edge="1">
          <mxGeometry width="50" height="50" relative="1" as="geometry">
            <mxPoint x="-3140" y="8439" as="sourcePoint" />
            <mxPoint x="-3000" y="8439" as="targetPoint" />
          </mxGeometry>
        </mxCell>
        <mxCell id="e8_aewo6IwP7DNfwToR0-90" value="din_R[0:15][10:0] = R2" style="text;html=1;align=center;verticalAlign=middle;whiteSpace=wrap;rounded=0;" parent="1" vertex="1">
          <mxGeometry x="-3120" y="8399" width="110" height="30" as="geometry" />
        </mxCell>
        <mxCell id="e8_aewo6IwP7DNfwToR0-91" value="" style="endArrow=classic;html=1;rounded=0;strokeWidth=6;" parent="1" edge="1">
          <mxGeometry width="50" height="50" relative="1" as="geometry">
            <mxPoint x="-3140" y="8499" as="sourcePoint" />
            <mxPoint x="-3000" y="8500" as="targetPoint" />
          </mxGeometry>
        </mxCell>
        <mxCell id="e8_aewo6IwP7DNfwToR0-92" value="din_Q[0:15][10:0] = Q2" style="text;html=1;align=center;verticalAlign=middle;whiteSpace=wrap;rounded=0;" parent="1" vertex="1">
          <mxGeometry x="-3120" y="8459" width="110" height="30" as="geometry" />
        </mxCell>
        <mxCell id="e8_aewo6IwP7DNfwToR0-93" value="" style="endArrow=classic;html=1;rounded=0;strokeWidth=6;" parent="1" edge="1">
          <mxGeometry width="50" height="50" relative="1" as="geometry">
            <mxPoint x="-2766" y="8360" as="sourcePoint" />
            <mxPoint x="-2650" y="8360" as="targetPoint" />
          </mxGeometry>
        </mxCell>
        <mxCell id="e8_aewo6IwP7DNfwToR0-94" value="dout_R_add_10[0:15][11:0]" style="text;html=1;align=center;verticalAlign=middle;whiteSpace=wrap;rounded=0;" parent="1" vertex="1">
          <mxGeometry x="-2780" y="8320" width="150" height="30" as="geometry" />
        </mxCell>
        <mxCell id="e8_aewo6IwP7DNfwToR0-95" value="" style="endArrow=classic;html=1;rounded=0;entryX=-0.004;entryY=0.316;entryDx=0;entryDy=0;entryPerimeter=0;strokeWidth=6;" parent="1" target="e8_aewo6IwP7DNfwToR0-63" edge="1">
          <mxGeometry width="50" height="50" relative="1" as="geometry">
            <mxPoint x="-2766" y="8420" as="sourcePoint" />
            <mxPoint x="-2556" y="8420.199999999999" as="targetPoint" />
          </mxGeometry>
        </mxCell>
        <mxCell id="e8_aewo6IwP7DNfwToR0-96" value="dout_R_sub_10[0:15][11:0]" style="text;html=1;align=center;verticalAlign=middle;whiteSpace=wrap;rounded=0;" parent="1" vertex="1">
          <mxGeometry x="-2780" y="8380" width="150" height="30" as="geometry" />
        </mxCell>
        <mxCell id="e8_aewo6IwP7DNfwToR0-97" value="" style="endArrow=classic;html=1;rounded=0;strokeWidth=6;" parent="1" edge="1">
          <mxGeometry width="50" height="50" relative="1" as="geometry">
            <mxPoint x="-2766" y="8480" as="sourcePoint" />
            <mxPoint x="-2650" y="8480" as="targetPoint" />
          </mxGeometry>
        </mxCell>
        <mxCell id="e8_aewo6IwP7DNfwToR0-98" value="dout_Q_add_10[0:15][11:0]" style="text;html=1;align=center;verticalAlign=middle;whiteSpace=wrap;rounded=0;" parent="1" vertex="1">
          <mxGeometry x="-2780" y="8440" width="150" height="30" as="geometry" />
        </mxCell>
        <mxCell id="e8_aewo6IwP7DNfwToR0-99" value="" style="endArrow=classic;html=1;rounded=0;entryX=-0.004;entryY=0.511;entryDx=0;entryDy=0;entryPerimeter=0;strokeWidth=6;" parent="1" target="e8_aewo6IwP7DNfwToR0-63" edge="1">
          <mxGeometry width="50" height="50" relative="1" as="geometry">
            <mxPoint x="-2766" y="8540" as="sourcePoint" />
            <mxPoint x="-2556" y="8540.199999999999" as="targetPoint" />
          </mxGeometry>
        </mxCell>
        <mxCell id="e8_aewo6IwP7DNfwToR0-100" value="dout_Q_sub_10[0:15][11:0]" style="text;html=1;align=center;verticalAlign=middle;whiteSpace=wrap;rounded=0;" parent="1" vertex="1">
          <mxGeometry x="-2780" y="8500" width="150" height="30" as="geometry" />
        </mxCell>
        <mxCell id="e8_aewo6IwP7DNfwToR0-101" style="edgeStyle=orthogonalEdgeStyle;rounded=0;orthogonalLoop=1;jettySize=auto;html=1;entryX=0;entryY=0.5;entryDx=0;entryDy=0;" parent="1" source="e8_aewo6IwP7DNfwToR0-107" target="e8_aewo6IwP7DNfwToR0-67" edge="1">
          <mxGeometry relative="1" as="geometry" />
        </mxCell>
        <mxCell id="e8_aewo6IwP7DNfwToR0-102" value="BF_EN" style="rounded=0;whiteSpace=wrap;html=1;fontSize=23;" parent="1" vertex="1">
          <mxGeometry x="-2940" y="8949" width="145" height="160" as="geometry" />
        </mxCell>
        <mxCell id="e8_aewo6IwP7DNfwToR0-103" style="edgeStyle=orthogonalEdgeStyle;rounded=0;orthogonalLoop=1;jettySize=auto;html=1;exitX=1;exitY=0.5;exitDx=0;exitDy=0;entryX=0;entryY=0.569;entryDx=0;entryDy=0;entryPerimeter=0;" parent="1" source="e8_aewo6IwP7DNfwToR0-65" target="e8_aewo6IwP7DNfwToR0-102" edge="1">
          <mxGeometry relative="1" as="geometry" />
        </mxCell>
        <mxCell id="e8_aewo6IwP7DNfwToR0-104" value="CNT[1]" style="text;html=1;align=center;verticalAlign=middle;whiteSpace=wrap;rounded=0;" parent="1" vertex="1">
          <mxGeometry x="-3100" y="9000" width="110" height="30" as="geometry" />
        </mxCell>
        <mxCell id="e8_aewo6IwP7DNfwToR0-105" value="bf_en" style="text;html=1;align=center;verticalAlign=middle;whiteSpace=wrap;rounded=0;" parent="1" vertex="1">
          <mxGeometry x="-2780" y="9035" width="110" height="30" as="geometry" />
        </mxCell>
        <mxCell id="e8_aewo6IwP7DNfwToR0-106" value="" style="edgeStyle=orthogonalEdgeStyle;rounded=0;orthogonalLoop=1;jettySize=auto;html=1;entryDx=0;entryDy=0;" parent="1" source="e8_aewo6IwP7DNfwToR0-102" target="e8_aewo6IwP7DNfwToR0-107" edge="1">
          <mxGeometry relative="1" as="geometry">
            <mxPoint x="-2795" y="9029" as="sourcePoint" />
            <mxPoint x="-2650" y="9029" as="targetPoint" />
          </mxGeometry>
        </mxCell>
        <mxCell id="e8_aewo6IwP7DNfwToR0-107" value="" style="shape=waypoint;sketch=0;fillStyle=solid;size=6;pointerEvents=1;points=[];fillColor=none;resizable=0;rotatable=0;perimeter=centerPerimeter;snapToPoint=1;" parent="1" vertex="1">
          <mxGeometry x="-2730" y="9020" width="20" height="20" as="geometry" />
        </mxCell>
        <mxCell id="e8_aewo6IwP7DNfwToR0-108" style="edgeStyle=orthogonalEdgeStyle;rounded=0;orthogonalLoop=1;jettySize=auto;html=1;entryX=0.983;entryY=0.994;entryDx=0;entryDy=0;entryPerimeter=0;" parent="1" source="e8_aewo6IwP7DNfwToR0-107" target="e8_aewo6IwP7DNfwToR0-62" edge="1">
          <mxGeometry relative="1" as="geometry">
            <mxPoint x="-2760" y="8846" as="targetPoint" />
            <Array as="points">
              <mxPoint x="-2720" y="8846" />
            </Array>
          </mxGeometry>
        </mxCell>
        <mxCell id="e8_aewo6IwP7DNfwToR0-109" style="edgeStyle=orthogonalEdgeStyle;rounded=0;orthogonalLoop=1;jettySize=auto;html=1;exitX=0.5;exitY=0;exitDx=0;exitDy=0;entryX=0.317;entryY=0.998;entryDx=0;entryDy=0;entryPerimeter=0;" parent="1" source="e8_aewo6IwP7DNfwToR0-67" target="e8_aewo6IwP7DNfwToR0-63" edge="1">
          <mxGeometry relative="1" as="geometry" />
        </mxCell>
        <mxCell id="e8_aewo6IwP7DNfwToR0-110" value="valid_fac8_0" style="text;html=1;align=center;verticalAlign=middle;whiteSpace=wrap;rounded=0;" parent="1" vertex="1">
          <mxGeometry x="-2590" y="8870" width="110" height="30" as="geometry" />
        </mxCell>
        <mxCell id="e8_aewo6IwP7DNfwToR0-111" value="alert_mod10" style="text;html=1;align=center;verticalAlign=middle;whiteSpace=wrap;rounded=0;" parent="1" vertex="1">
          <mxGeometry x="-2340" y="8990" width="110" height="30" as="geometry" />
        </mxCell>
        <mxCell id="e8_aewo6IwP7DNfwToR0-112" value="&lt;b&gt;MOD1_0&lt;/b&gt;" style="text;html=1;align=center;verticalAlign=middle;whiteSpace=wrap;rounded=0;fontSize=38;" parent="1" vertex="1">
          <mxGeometry x="-2950" y="8110" width="200" height="70" as="geometry" />
        </mxCell>
        <mxCell id="e8_aewo6IwP7DNfwToR0-113" value="" style="endArrow=classic;html=1;rounded=0;entryX=0;entryY=0.25;entryDx=0;entryDy=0;" parent="1" target="e8_aewo6IwP7DNfwToR0-65" edge="1">
          <mxGeometry width="50" height="50" relative="1" as="geometry">
            <mxPoint x="-3670" y="9000" as="sourcePoint" />
            <mxPoint x="-3420" y="8969" as="targetPoint" />
          </mxGeometry>
        </mxCell>
        <mxCell id="e8_aewo6IwP7DNfwToR0-114" value="VALID" style="text;html=1;align=center;verticalAlign=middle;whiteSpace=wrap;rounded=0;" parent="1" vertex="1">
          <mxGeometry x="-3570" y="8930" width="110" height="30" as="geometry" />
        </mxCell>
        <mxCell id="61rb47NGI_a2kLUwDJ28-1" value="" style="rounded=0;whiteSpace=wrap;html=1;" vertex="1" parent="1">
          <mxGeometry x="550" y="8230" width="1310" height="1600" as="geometry" />
        </mxCell>
        <mxCell id="61rb47NGI_a2kLUwDJ28-28" value="&lt;b&gt;&lt;font style=&quot;font-size: 35px;&quot;&gt;MODULE1_2&lt;/font&gt;&lt;/b&gt;" style="text;html=1;align=center;verticalAlign=middle;whiteSpace=wrap;rounded=0;" vertex="1" parent="1">
          <mxGeometry x="1005" y="8130" width="300" height="70" as="geometry" />
        </mxCell>
        <mxCell id="61rb47NGI_a2kLUwDJ28-90" value="" style="rounded=0;whiteSpace=wrap;html=1;" vertex="1" parent="1">
          <mxGeometry x="-1685" y="8169.93" width="1310" height="1000" as="geometry" />
        </mxCell>
        <mxCell id="61rb47NGI_a2kLUwDJ28-92" value="&lt;span style=&quot;font-size: 16px;&quot;&gt;SUB_SHIFT_REG_32&lt;/span&gt;" style="rounded=0;whiteSpace=wrap;html=1;fontSize=18;" vertex="1" parent="1">
          <mxGeometry x="-1635" y="8584.93" width="180" height="230" as="geometry" />
        </mxCell>
        <mxCell id="61rb47NGI_a2kLUwDJ28-93" value="16IN_MUX" style="rounded=0;whiteSpace=wrap;html=1;fontSize=18;" vertex="1" parent="1">
          <mxGeometry x="-1405" y="8279.93" width="110" height="530" as="geometry" />
        </mxCell>
        <mxCell id="61rb47NGI_a2kLUwDJ28-94" value="&lt;span style=&quot;font-size: 23px;&quot;&gt;BF2I&lt;/span&gt;" style="rounded=0;whiteSpace=wrap;html=1;fontSize=18;" vertex="1" parent="1">
          <mxGeometry x="-1045" y="8279.93" width="110" height="530" as="geometry" />
        </mxCell>
        <mxCell id="61rb47NGI_a2kLUwDJ28-95" value="MUL_FAC8_1" style="rounded=0;whiteSpace=wrap;html=1;fontSize=18;" vertex="1" parent="1">
          <mxGeometry x="-665" y="8259.93" width="180" height="530" as="geometry" />
        </mxCell>
        <mxCell id="61rb47NGI_a2kLUwDJ28-96" value="" style="rounded=0;whiteSpace=wrap;html=1;" vertex="1" parent="1">
          <mxGeometry x="-1655" y="8889.93" width="1250" height="270" as="geometry" />
        </mxCell>
        <mxCell id="61rb47NGI_a2kLUwDJ28-97" style="edgeStyle=orthogonalEdgeStyle;rounded=0;orthogonalLoop=1;jettySize=auto;html=1;exitX=1;exitY=0.5;exitDx=0;exitDy=0;entryX=0;entryY=0.5;entryDx=0;entryDy=0;" edge="1" parent="1" source="61rb47NGI_a2kLUwDJ28-98" target="61rb47NGI_a2kLUwDJ28-103">
          <mxGeometry relative="1" as="geometry">
            <mxPoint x="-955" y="9024.93" as="targetPoint" />
            <Array as="points">
              <mxPoint x="-1385" y="9024.93" />
              <mxPoint x="-1385" y="9129.93" />
              <mxPoint x="-835" y="9129.93" />
              <mxPoint x="-835" y="9024.93" />
            </Array>
          </mxGeometry>
        </mxCell>
        <mxCell id="61rb47NGI_a2kLUwDJ28-98" value="CNT_1B_FSM" style="rounded=0;whiteSpace=wrap;html=1;fontSize=18;" vertex="1" parent="1">
          <mxGeometry x="-1575" y="8947.43" width="150" height="155" as="geometry" />
        </mxCell>
        <mxCell id="61rb47NGI_a2kLUwDJ28-99" style="edgeStyle=orthogonalEdgeStyle;rounded=0;orthogonalLoop=1;jettySize=auto;html=1;exitX=0.75;exitY=0;exitDx=0;exitDy=0;entryX=0.75;entryY=1;entryDx=0;entryDy=0;" edge="1" parent="1" source="61rb47NGI_a2kLUwDJ28-103" target="61rb47NGI_a2kLUwDJ28-95">
          <mxGeometry relative="1" as="geometry" />
        </mxCell>
        <mxCell id="61rb47NGI_a2kLUwDJ28-100" value="SEL" style="edgeLabel;html=1;align=center;verticalAlign=middle;resizable=0;points=[];" vertex="1" connectable="0" parent="61rb47NGI_a2kLUwDJ28-99">
          <mxGeometry x="0.1564" y="-2" relative="1" as="geometry">
            <mxPoint x="1" y="1" as="offset" />
          </mxGeometry>
        </mxCell>
        <mxCell id="61rb47NGI_a2kLUwDJ28-101" style="edgeStyle=orthogonalEdgeStyle;rounded=0;orthogonalLoop=1;jettySize=auto;html=1;exitX=1;exitY=0.5;exitDx=0;exitDy=0;" edge="1" parent="1" source="61rb47NGI_a2kLUwDJ28-103">
          <mxGeometry relative="1" as="geometry">
            <mxPoint x="-265" y="9024.93" as="targetPoint" />
          </mxGeometry>
        </mxCell>
        <mxCell id="61rb47NGI_a2kLUwDJ28-102" value="alert_mod11" style="edgeLabel;html=1;align=center;verticalAlign=middle;resizable=0;points=[];fontSize=17;" vertex="1" connectable="0" parent="61rb47NGI_a2kLUwDJ28-101">
          <mxGeometry x="0.5404" y="6" relative="1" as="geometry">
            <mxPoint x="-32" y="6" as="offset" />
          </mxGeometry>
        </mxCell>
        <mxCell id="61rb47NGI_a2kLUwDJ28-103" value="FAC8_1_CTRL" style="rounded=0;whiteSpace=wrap;html=1;fontSize=18;" vertex="1" parent="1">
          <mxGeometry x="-645" y="8947.43" width="150" height="155" as="geometry" />
        </mxCell>
        <mxCell id="61rb47NGI_a2kLUwDJ28-104" value="" style="endArrow=classic;html=1;rounded=0;strokeWidth=2;" edge="1" parent="1">
          <mxGeometry width="50" height="50" relative="1" as="geometry">
            <mxPoint x="-1845" y="8649.93" as="sourcePoint" />
            <mxPoint x="-1635" y="8649.93" as="targetPoint" />
          </mxGeometry>
        </mxCell>
        <mxCell id="61rb47NGI_a2kLUwDJ28-105" value="" style="endArrow=classic;html=1;rounded=0;strokeWidth=2;" edge="1" parent="1">
          <mxGeometry width="50" height="50" relative="1" as="geometry">
            <mxPoint x="-1845" y="8729.93" as="sourcePoint" />
            <mxPoint x="-1635" y="8729.93" as="targetPoint" />
          </mxGeometry>
        </mxCell>
        <mxCell id="61rb47NGI_a2kLUwDJ28-106" value="dout_R_sub_10[0:15][11:0]" style="text;html=1;align=center;verticalAlign=middle;whiteSpace=wrap;rounded=0;" vertex="1" parent="1">
          <mxGeometry x="-1855" y="8609.93" width="170" height="30" as="geometry" />
        </mxCell>
        <mxCell id="61rb47NGI_a2kLUwDJ28-107" value="dout_Q_sub_10[0:15][11:0]" style="text;html=1;align=center;verticalAlign=middle;whiteSpace=wrap;rounded=0;" vertex="1" parent="1">
          <mxGeometry x="-1855" y="8684.93" width="170" height="30" as="geometry" />
        </mxCell>
        <mxCell id="61rb47NGI_a2kLUwDJ28-108" value="" style="endArrow=classic;html=1;rounded=0;strokeWidth=2;entryX=0.009;entryY=0.149;entryDx=0;entryDy=0;entryPerimeter=0;" edge="1" parent="1" target="61rb47NGI_a2kLUwDJ28-93">
          <mxGeometry width="50" height="50" relative="1" as="geometry">
            <mxPoint x="-1870" y="8359.93" as="sourcePoint" />
            <mxPoint x="-1660" y="8359.93" as="targetPoint" />
          </mxGeometry>
        </mxCell>
        <mxCell id="61rb47NGI_a2kLUwDJ28-109" value="" style="endArrow=classic;html=1;rounded=0;strokeWidth=2;entryX=0.009;entryY=0.296;entryDx=0;entryDy=0;entryPerimeter=0;" edge="1" parent="1" target="61rb47NGI_a2kLUwDJ28-93">
          <mxGeometry width="50" height="50" relative="1" as="geometry">
            <mxPoint x="-1870" y="8439.93" as="sourcePoint" />
            <mxPoint x="-1660" y="8439.93" as="targetPoint" />
          </mxGeometry>
        </mxCell>
        <mxCell id="61rb47NGI_a2kLUwDJ28-110" value="dout_R_add_10[0:15][11:0]" style="text;html=1;align=center;verticalAlign=middle;whiteSpace=wrap;rounded=0;" vertex="1" parent="1">
          <mxGeometry x="-1880" y="8319.93" width="170" height="30" as="geometry" />
        </mxCell>
        <mxCell id="61rb47NGI_a2kLUwDJ28-111" value="dout_Q_add_10[0:15][11:0]" style="text;html=1;align=center;verticalAlign=middle;whiteSpace=wrap;rounded=0;" vertex="1" parent="1">
          <mxGeometry x="-1880" y="8394.93" width="170" height="30" as="geometry" />
        </mxCell>
        <mxCell id="61rb47NGI_a2kLUwDJ28-112" style="edgeStyle=orthogonalEdgeStyle;rounded=0;orthogonalLoop=1;jettySize=auto;html=1;exitX=1;exitY=0.25;exitDx=0;exitDy=0;entryX=0;entryY=0.685;entryDx=0;entryDy=0;entryPerimeter=0;" edge="1" parent="1" source="61rb47NGI_a2kLUwDJ28-92" target="61rb47NGI_a2kLUwDJ28-93">
          <mxGeometry relative="1" as="geometry" />
        </mxCell>
        <mxCell id="61rb47NGI_a2kLUwDJ28-113" style="edgeStyle=orthogonalEdgeStyle;rounded=0;orthogonalLoop=1;jettySize=auto;html=1;entryX=0;entryY=0.791;entryDx=0;entryDy=0;entryPerimeter=0;" edge="1" parent="1" source="61rb47NGI_a2kLUwDJ28-92" target="61rb47NGI_a2kLUwDJ28-93">
          <mxGeometry relative="1" as="geometry" />
        </mxCell>
        <mxCell id="61rb47NGI_a2kLUwDJ28-114" style="edgeStyle=orthogonalEdgeStyle;rounded=0;orthogonalLoop=1;jettySize=auto;html=1;exitX=0.5;exitY=0;exitDx=0;exitDy=0;entryX=0.5;entryY=1;entryDx=0;entryDy=0;" edge="1" parent="1" source="61rb47NGI_a2kLUwDJ28-115" target="61rb47NGI_a2kLUwDJ28-93">
          <mxGeometry relative="1" as="geometry" />
        </mxCell>
        <mxCell id="61rb47NGI_a2kLUwDJ28-115" value="MUX_SEL_CTRL" style="rounded=0;whiteSpace=wrap;html=1;fontSize=18;" vertex="1" parent="1">
          <mxGeometry x="-1245" y="8947.43" width="150" height="155" as="geometry" />
        </mxCell>
        <mxCell id="61rb47NGI_a2kLUwDJ28-116" value="" style="endArrow=classic;html=1;rounded=0;entryX=0.02;entryY=0.59;entryDx=0;entryDy=0;entryPerimeter=0;" edge="1" parent="1" source="61rb47NGI_a2kLUwDJ28-120" target="61rb47NGI_a2kLUwDJ28-98">
          <mxGeometry width="50" height="50" relative="1" as="geometry">
            <mxPoint x="-1815" y="9039.93" as="sourcePoint" />
            <mxPoint x="-1685" y="9039.93" as="targetPoint" />
          </mxGeometry>
        </mxCell>
        <mxCell id="61rb47NGI_a2kLUwDJ28-117" value="alert_mod10" style="text;html=1;align=center;verticalAlign=middle;whiteSpace=wrap;rounded=0;fontSize=19;" vertex="1" parent="1">
          <mxGeometry x="-1865" y="9004.93" width="170" height="30" as="geometry" />
        </mxCell>
        <mxCell id="61rb47NGI_a2kLUwDJ28-118" value="" style="endArrow=classic;html=1;rounded=0;" edge="1" parent="1" target="61rb47NGI_a2kLUwDJ28-120">
          <mxGeometry width="50" height="50" relative="1" as="geometry">
            <mxPoint x="-1815" y="9039.93" as="sourcePoint" />
            <mxPoint x="-1685" y="9039.93" as="targetPoint" />
          </mxGeometry>
        </mxCell>
        <mxCell id="61rb47NGI_a2kLUwDJ28-119" style="edgeStyle=orthogonalEdgeStyle;rounded=0;orthogonalLoop=1;jettySize=auto;html=1;entryX=0.5;entryY=1;entryDx=0;entryDy=0;" edge="1" parent="1" source="61rb47NGI_a2kLUwDJ28-120" target="61rb47NGI_a2kLUwDJ28-115">
          <mxGeometry relative="1" as="geometry">
            <Array as="points">
              <mxPoint x="-1745" y="9239.93" />
              <mxPoint x="-1170" y="9239.93" />
            </Array>
          </mxGeometry>
        </mxCell>
        <mxCell id="61rb47NGI_a2kLUwDJ28-120" value="" style="shape=waypoint;sketch=0;fillStyle=solid;size=6;pointerEvents=1;points=[];fillColor=none;resizable=0;rotatable=0;perimeter=centerPerimeter;snapToPoint=1;" vertex="1" parent="1">
          <mxGeometry x="-1755" y="9029.93" width="20" height="20" as="geometry" />
        </mxCell>
        <mxCell id="61rb47NGI_a2kLUwDJ28-121" style="edgeStyle=orthogonalEdgeStyle;rounded=0;orthogonalLoop=1;jettySize=auto;html=1;exitX=0.5;exitY=0;exitDx=0;exitDy=0;entryX=0.409;entryY=1.002;entryDx=0;entryDy=0;entryPerimeter=0;" edge="1" parent="1" source="61rb47NGI_a2kLUwDJ28-103" target="61rb47NGI_a2kLUwDJ28-95">
          <mxGeometry relative="1" as="geometry" />
        </mxCell>
        <mxCell id="61rb47NGI_a2kLUwDJ28-122" value="EN" style="edgeLabel;html=1;align=center;verticalAlign=middle;resizable=0;points=[];" vertex="1" connectable="0" parent="61rb47NGI_a2kLUwDJ28-121">
          <mxGeometry x="0.224" y="-2" relative="1" as="geometry">
            <mxPoint y="1" as="offset" />
          </mxGeometry>
        </mxCell>
        <mxCell id="61rb47NGI_a2kLUwDJ28-123" value="" style="shape=waypoint;sketch=0;fillStyle=solid;size=6;pointerEvents=1;points=[];fillColor=none;resizable=0;rotatable=0;perimeter=centerPerimeter;snapToPoint=1;" vertex="1" parent="1">
          <mxGeometry x="-845" y="9014.93" width="20" height="20" as="geometry" />
        </mxCell>
        <mxCell id="61rb47NGI_a2kLUwDJ28-124" style="edgeStyle=orthogonalEdgeStyle;rounded=0;orthogonalLoop=1;jettySize=auto;html=1;entryX=0.636;entryY=0.998;entryDx=0;entryDy=0;entryPerimeter=0;" edge="1" parent="1" source="61rb47NGI_a2kLUwDJ28-123" target="61rb47NGI_a2kLUwDJ28-94">
          <mxGeometry relative="1" as="geometry" />
        </mxCell>
        <mxCell id="61rb47NGI_a2kLUwDJ28-125" value="" style="endArrow=classic;html=1;rounded=0;entryX=0;entryY=0.078;entryDx=0;entryDy=0;entryPerimeter=0;exitX=1.013;exitY=0.178;exitDx=0;exitDy=0;exitPerimeter=0;strokeWidth=6;" edge="1" parent="1">
          <mxGeometry width="50" height="50" relative="1" as="geometry">
            <mxPoint x="-372" y="8421.93" as="sourcePoint" />
            <mxPoint x="-85" y="8420.130000000001" as="targetPoint" />
          </mxGeometry>
        </mxCell>
        <mxCell id="61rb47NGI_a2kLUwDJ28-126" value="dout_R_add_1[0:7][14:0]" style="text;html=1;align=center;verticalAlign=middle;whiteSpace=wrap;rounded=0;" vertex="1" parent="1">
          <mxGeometry x="-245" y="8379.93" width="150" height="30" as="geometry" />
        </mxCell>
        <mxCell id="61rb47NGI_a2kLUwDJ28-127" value="" style="endArrow=classic;html=1;rounded=0;entryX=0;entryY=0.078;entryDx=0;entryDy=0;entryPerimeter=0;exitX=1;exitY=0.265;exitDx=0;exitDy=0;exitPerimeter=0;strokeWidth=6;" edge="1" parent="1">
          <mxGeometry width="50" height="50" relative="1" as="geometry">
            <mxPoint x="-375" y="8476.93" as="sourcePoint" />
            <mxPoint x="-85" y="8480.130000000001" as="targetPoint" />
          </mxGeometry>
        </mxCell>
        <mxCell id="61rb47NGI_a2kLUwDJ28-128" value="dout_R_add_2[0:7][14:0]" style="text;html=1;align=center;verticalAlign=middle;whiteSpace=wrap;rounded=0;" vertex="1" parent="1">
          <mxGeometry x="-245" y="8439.93" width="150" height="30" as="geometry" />
        </mxCell>
        <mxCell id="61rb47NGI_a2kLUwDJ28-129" value="" style="endArrow=classic;html=1;rounded=0;entryX=0;entryY=0.078;entryDx=0;entryDy=0;entryPerimeter=0;exitX=1;exitY=0.365;exitDx=0;exitDy=0;exitPerimeter=0;strokeWidth=6;" edge="1" parent="1">
          <mxGeometry width="50" height="50" relative="1" as="geometry">
            <mxPoint x="-375" y="8539.93" as="sourcePoint" />
            <mxPoint x="-85" y="8540.130000000001" as="targetPoint" />
          </mxGeometry>
        </mxCell>
        <mxCell id="61rb47NGI_a2kLUwDJ28-130" value="dout_R_sub_1[0:7][14:0]" style="text;html=1;align=center;verticalAlign=middle;whiteSpace=wrap;rounded=0;" vertex="1" parent="1">
          <mxGeometry x="-245" y="8499.93" width="150" height="30" as="geometry" />
        </mxCell>
        <mxCell id="61rb47NGI_a2kLUwDJ28-131" value="" style="endArrow=classic;html=1;rounded=0;entryX=0;entryY=0.078;entryDx=0;entryDy=0;entryPerimeter=0;exitX=0.996;exitY=0.459;exitDx=0;exitDy=0;exitPerimeter=0;strokeWidth=6;" edge="1" parent="1">
          <mxGeometry width="50" height="50" relative="1" as="geometry">
            <mxPoint x="-376" y="8598.93" as="sourcePoint" />
            <mxPoint x="-85" y="8600.130000000001" as="targetPoint" />
          </mxGeometry>
        </mxCell>
        <mxCell id="61rb47NGI_a2kLUwDJ28-132" value="dout_R_sub_2[0:7][14:0]" style="text;html=1;align=center;verticalAlign=middle;whiteSpace=wrap;rounded=0;" vertex="1" parent="1">
          <mxGeometry x="-245" y="8559.93" width="150" height="30" as="geometry" />
        </mxCell>
        <mxCell id="61rb47NGI_a2kLUwDJ28-133" value="&lt;b&gt;&lt;font style=&quot;font-size: 35px;&quot;&gt;MODULE1_1&lt;/font&gt;&lt;/b&gt;" style="text;html=1;align=center;verticalAlign=middle;whiteSpace=wrap;rounded=0;" vertex="1" parent="1">
          <mxGeometry x="-1185" y="8069.93" width="300" height="70" as="geometry" />
        </mxCell>
        <mxCell id="61rb47NGI_a2kLUwDJ28-135" value="&lt;span style=&quot;font-size: 16px;&quot;&gt;SHIFT_REG_16&lt;/span&gt;" style="rounded=0;whiteSpace=wrap;html=1;fontSize=18;" vertex="1" parent="1">
          <mxGeometry x="-1255" y="8294.93" width="180" height="230" as="geometry" />
        </mxCell>
        <mxCell id="61rb47NGI_a2kLUwDJ28-136" value="" style="endArrow=classic;html=1;rounded=0;entryX=0;entryY=0.078;entryDx=0;entryDy=0;entryPerimeter=0;exitX=1.013;exitY=0.178;exitDx=0;exitDy=0;exitPerimeter=0;strokeWidth=6;" edge="1" parent="1">
          <mxGeometry width="50" height="50" relative="1" as="geometry">
            <mxPoint x="-371" y="8651.93" as="sourcePoint" />
            <mxPoint x="-84" y="8650.130000000001" as="targetPoint" />
          </mxGeometry>
        </mxCell>
        <mxCell id="61rb47NGI_a2kLUwDJ28-137" value="dout_Q_add_1[0:7][14:0]" style="text;html=1;align=center;verticalAlign=middle;whiteSpace=wrap;rounded=0;" vertex="1" parent="1">
          <mxGeometry x="-244" y="8609.93" width="150" height="30" as="geometry" />
        </mxCell>
        <mxCell id="61rb47NGI_a2kLUwDJ28-144" value="" style="endArrow=classic;html=1;rounded=0;entryX=0;entryY=0.078;entryDx=0;entryDy=0;entryPerimeter=0;exitX=1;exitY=0.265;exitDx=0;exitDy=0;exitPerimeter=0;strokeWidth=6;" edge="1" parent="1">
          <mxGeometry width="50" height="50" relative="1" as="geometry">
            <mxPoint x="-374" y="8707" as="sourcePoint" />
            <mxPoint x="-84" y="8710.2" as="targetPoint" />
          </mxGeometry>
        </mxCell>
        <mxCell id="61rb47NGI_a2kLUwDJ28-145" value="dout_Q_add_2[0:7][14:0]" style="text;html=1;align=center;verticalAlign=middle;whiteSpace=wrap;rounded=0;" vertex="1" parent="1">
          <mxGeometry x="-244" y="8670" width="150" height="30" as="geometry" />
        </mxCell>
        <mxCell id="61rb47NGI_a2kLUwDJ28-146" value="" style="endArrow=classic;html=1;rounded=0;entryX=0;entryY=0.078;entryDx=0;entryDy=0;entryPerimeter=0;exitX=1;exitY=0.365;exitDx=0;exitDy=0;exitPerimeter=0;strokeWidth=6;" edge="1" parent="1">
          <mxGeometry width="50" height="50" relative="1" as="geometry">
            <mxPoint x="-374" y="8770" as="sourcePoint" />
            <mxPoint x="-84" y="8770.2" as="targetPoint" />
          </mxGeometry>
        </mxCell>
        <mxCell id="61rb47NGI_a2kLUwDJ28-147" value="dout_Q_sub_1[0:7][14:0]" style="text;html=1;align=center;verticalAlign=middle;whiteSpace=wrap;rounded=0;" vertex="1" parent="1">
          <mxGeometry x="-244" y="8730" width="150" height="30" as="geometry" />
        </mxCell>
        <mxCell id="61rb47NGI_a2kLUwDJ28-148" value="" style="endArrow=classic;html=1;rounded=0;entryX=0;entryY=0.078;entryDx=0;entryDy=0;entryPerimeter=0;exitX=0.996;exitY=0.459;exitDx=0;exitDy=0;exitPerimeter=0;strokeWidth=6;" edge="1" parent="1">
          <mxGeometry width="50" height="50" relative="1" as="geometry">
            <mxPoint x="-375" y="8829" as="sourcePoint" />
            <mxPoint x="-84" y="8830.2" as="targetPoint" />
          </mxGeometry>
        </mxCell>
        <mxCell id="61rb47NGI_a2kLUwDJ28-149" value="dout_Q_sub_2[0:7][14:0]" style="text;html=1;align=center;verticalAlign=middle;whiteSpace=wrap;rounded=0;" vertex="1" parent="1">
          <mxGeometry x="-244" y="8790" width="150" height="30" as="geometry" />
        </mxCell>
        <mxCell id="61rb47NGI_a2kLUwDJ28-151" value="" style="endArrow=none;html=1;rounded=0;exitX=0;exitY=0.5;exitDx=0;exitDy=0;entryX=1;entryY=0.5;entryDx=0;entryDy=0;" edge="1" parent="1" source="61rb47NGI_a2kLUwDJ28-1" target="61rb47NGI_a2kLUwDJ28-1">
          <mxGeometry width="50" height="50" relative="1" as="geometry">
            <mxPoint x="1220" y="9070" as="sourcePoint" />
            <mxPoint x="1270" y="9020" as="targetPoint" />
          </mxGeometry>
        </mxCell>
        <mxCell id="61rb47NGI_a2kLUwDJ28-152" value="" style="endArrow=classic;html=1;rounded=0;entryX=0;entryY=0.078;entryDx=0;entryDy=0;entryPerimeter=0;exitX=1.013;exitY=0.178;exitDx=0;exitDy=0;exitPerimeter=0;strokeWidth=6;" edge="1" parent="1">
          <mxGeometry width="50" height="50" relative="1" as="geometry">
            <mxPoint x="253" y="8421.929999999998" as="sourcePoint" />
            <mxPoint x="540" y="8420.13" as="targetPoint" />
          </mxGeometry>
        </mxCell>
        <mxCell id="61rb47NGI_a2kLUwDJ28-153" value="dout_R_add_1[0:7][14:0]" style="text;html=1;align=center;verticalAlign=middle;whiteSpace=wrap;rounded=0;" vertex="1" parent="1">
          <mxGeometry x="380" y="8379.929999999998" width="150" height="30" as="geometry" />
        </mxCell>
        <mxCell id="61rb47NGI_a2kLUwDJ28-154" value="" style="endArrow=classic;html=1;rounded=0;entryX=0;entryY=0.078;entryDx=0;entryDy=0;entryPerimeter=0;exitX=1;exitY=0.265;exitDx=0;exitDy=0;exitPerimeter=0;strokeWidth=6;" edge="1" parent="1">
          <mxGeometry width="50" height="50" relative="1" as="geometry">
            <mxPoint x="250" y="8476.929999999998" as="sourcePoint" />
            <mxPoint x="540" y="8480.13" as="targetPoint" />
          </mxGeometry>
        </mxCell>
        <mxCell id="61rb47NGI_a2kLUwDJ28-155" value="dout_R_add_2[0:7][14:0]" style="text;html=1;align=center;verticalAlign=middle;whiteSpace=wrap;rounded=0;" vertex="1" parent="1">
          <mxGeometry x="380" y="8439.929999999998" width="150" height="30" as="geometry" />
        </mxCell>
        <mxCell id="61rb47NGI_a2kLUwDJ28-156" value="" style="endArrow=classic;html=1;rounded=0;entryX=0;entryY=0.078;entryDx=0;entryDy=0;entryPerimeter=0;exitX=1;exitY=0.365;exitDx=0;exitDy=0;exitPerimeter=0;strokeWidth=6;" edge="1" parent="1">
          <mxGeometry width="50" height="50" relative="1" as="geometry">
            <mxPoint x="260" y="9120" as="sourcePoint" />
            <mxPoint x="550" y="9120.2" as="targetPoint" />
          </mxGeometry>
        </mxCell>
        <mxCell id="61rb47NGI_a2kLUwDJ28-157" value="dout_R_sub_1[0:7][14:0]" style="text;html=1;align=center;verticalAlign=middle;whiteSpace=wrap;rounded=0;" vertex="1" parent="1">
          <mxGeometry x="390" y="9080" width="150" height="30" as="geometry" />
        </mxCell>
        <mxCell id="61rb47NGI_a2kLUwDJ28-158" value="" style="endArrow=classic;html=1;rounded=0;entryX=0;entryY=0.078;entryDx=0;entryDy=0;entryPerimeter=0;exitX=0.996;exitY=0.459;exitDx=0;exitDy=0;exitPerimeter=0;strokeWidth=6;" edge="1" parent="1">
          <mxGeometry width="50" height="50" relative="1" as="geometry">
            <mxPoint x="259" y="9179" as="sourcePoint" />
            <mxPoint x="550" y="9180.2" as="targetPoint" />
          </mxGeometry>
        </mxCell>
        <mxCell id="61rb47NGI_a2kLUwDJ28-159" value="dout_R_sub_2[0:7][14:0]" style="text;html=1;align=center;verticalAlign=middle;whiteSpace=wrap;rounded=0;" vertex="1" parent="1">
          <mxGeometry x="390" y="9140" width="150" height="30" as="geometry" />
        </mxCell>
        <mxCell id="61rb47NGI_a2kLUwDJ28-160" value="" style="endArrow=classic;html=1;rounded=0;entryX=0;entryY=0.078;entryDx=0;entryDy=0;entryPerimeter=0;exitX=1.013;exitY=0.178;exitDx=0;exitDy=0;exitPerimeter=0;strokeWidth=6;" edge="1" parent="1">
          <mxGeometry width="50" height="50" relative="1" as="geometry">
            <mxPoint x="253" y="8566.8" as="sourcePoint" />
            <mxPoint x="540" y="8565" as="targetPoint" />
          </mxGeometry>
        </mxCell>
        <mxCell id="61rb47NGI_a2kLUwDJ28-161" value="dout_Q_add_1[0:7][14:0]" style="text;html=1;align=center;verticalAlign=middle;whiteSpace=wrap;rounded=0;" vertex="1" parent="1">
          <mxGeometry x="380" y="8524.8" width="150" height="30" as="geometry" />
        </mxCell>
        <mxCell id="61rb47NGI_a2kLUwDJ28-162" value="" style="endArrow=classic;html=1;rounded=0;entryX=0;entryY=0.078;entryDx=0;entryDy=0;entryPerimeter=0;exitX=1;exitY=0.265;exitDx=0;exitDy=0;exitPerimeter=0;strokeWidth=6;" edge="1" parent="1">
          <mxGeometry width="50" height="50" relative="1" as="geometry">
            <mxPoint x="250" y="8621.869999999999" as="sourcePoint" />
            <mxPoint x="540" y="8625.07" as="targetPoint" />
          </mxGeometry>
        </mxCell>
        <mxCell id="61rb47NGI_a2kLUwDJ28-163" value="dout_Q_add_2[0:7][14:0]" style="text;html=1;align=center;verticalAlign=middle;whiteSpace=wrap;rounded=0;" vertex="1" parent="1">
          <mxGeometry x="380" y="8584.869999999999" width="150" height="30" as="geometry" />
        </mxCell>
        <mxCell id="61rb47NGI_a2kLUwDJ28-164" value="" style="endArrow=classic;html=1;rounded=0;entryX=0;entryY=0.078;entryDx=0;entryDy=0;entryPerimeter=0;exitX=1;exitY=0.365;exitDx=0;exitDy=0;exitPerimeter=0;strokeWidth=6;" edge="1" parent="1">
          <mxGeometry width="50" height="50" relative="1" as="geometry">
            <mxPoint x="260" y="9260" as="sourcePoint" />
            <mxPoint x="550" y="9260.2" as="targetPoint" />
          </mxGeometry>
        </mxCell>
        <mxCell id="61rb47NGI_a2kLUwDJ28-165" value="dout_Q_sub_1[0:7][14:0]" style="text;html=1;align=center;verticalAlign=middle;whiteSpace=wrap;rounded=0;" vertex="1" parent="1">
          <mxGeometry x="390" y="9220" width="150" height="30" as="geometry" />
        </mxCell>
        <mxCell id="61rb47NGI_a2kLUwDJ28-166" value="" style="endArrow=classic;html=1;rounded=0;entryX=0;entryY=0.078;entryDx=0;entryDy=0;entryPerimeter=0;exitX=0.996;exitY=0.459;exitDx=0;exitDy=0;exitPerimeter=0;strokeWidth=6;" edge="1" parent="1">
          <mxGeometry width="50" height="50" relative="1" as="geometry">
            <mxPoint x="259" y="9319" as="sourcePoint" />
            <mxPoint x="550" y="9320.2" as="targetPoint" />
          </mxGeometry>
        </mxCell>
        <mxCell id="61rb47NGI_a2kLUwDJ28-167" value="dout_Q_sub_2[0:7][14:0]" style="text;html=1;align=center;verticalAlign=middle;whiteSpace=wrap;rounded=0;" vertex="1" parent="1">
          <mxGeometry x="390" y="9280" width="150" height="30" as="geometry" />
        </mxCell>
        <mxCell id="61rb47NGI_a2kLUwDJ28-168" style="edgeStyle=orthogonalEdgeStyle;rounded=0;orthogonalLoop=1;jettySize=auto;html=1;exitX=1;exitY=0.5;exitDx=0;exitDy=0;" edge="1" parent="1">
          <mxGeometry relative="1" as="geometry">
            <mxPoint x="550" y="8899.05" as="targetPoint" />
            <mxPoint x="320" y="8899.119999999999" as="sourcePoint" />
          </mxGeometry>
        </mxCell>
        <mxCell id="61rb47NGI_a2kLUwDJ28-169" value="alert_mod11" style="edgeLabel;html=1;align=center;verticalAlign=middle;resizable=0;points=[];fontSize=17;" vertex="1" connectable="0" parent="61rb47NGI_a2kLUwDJ28-168">
          <mxGeometry x="0.5404" y="6" relative="1" as="geometry">
            <mxPoint x="-32" y="6" as="offset" />
          </mxGeometry>
        </mxCell>
        <mxCell id="61rb47NGI_a2kLUwDJ28-170" style="edgeStyle=orthogonalEdgeStyle;rounded=0;orthogonalLoop=1;jettySize=auto;html=1;exitX=1;exitY=0.5;exitDx=0;exitDy=0;" edge="1" parent="1">
          <mxGeometry relative="1" as="geometry">
            <mxPoint x="550" y="9760" as="targetPoint" />
            <mxPoint x="320" y="9760.07" as="sourcePoint" />
          </mxGeometry>
        </mxCell>
        <mxCell id="61rb47NGI_a2kLUwDJ28-171" value="alert_mod11" style="edgeLabel;html=1;align=center;verticalAlign=middle;resizable=0;points=[];fontSize=17;" vertex="1" connectable="0" parent="61rb47NGI_a2kLUwDJ28-170">
          <mxGeometry x="0.5404" y="6" relative="1" as="geometry">
            <mxPoint x="-32" y="6" as="offset" />
          </mxGeometry>
        </mxCell>
        <mxCell id="61rb47NGI_a2kLUwDJ28-172" value="&lt;span style=&quot;font-size: 23px;&quot;&gt;BF2I&lt;/span&gt;" style="rounded=0;whiteSpace=wrap;html=1;fontSize=18;" vertex="1" parent="1">
          <mxGeometry x="640" y="8290" width="240" height="630" as="geometry" />
        </mxCell>
        <mxCell id="61rb47NGI_a2kLUwDJ28-173" value="MUL_FAC8_2" style="rounded=0;whiteSpace=wrap;html=1;fontSize=18;" vertex="1" parent="1">
          <mxGeometry x="1170" y="8289.87" width="214" height="620" as="geometry" />
        </mxCell>
        <mxCell id="61rb47NGI_a2kLUwDJ28-174" value="" style="endArrow=classic;html=1;rounded=0;entryX=0;entryY=0.078;entryDx=0;entryDy=0;entryPerimeter=0;exitX=1.013;exitY=0.178;exitDx=0;exitDy=0;exitPerimeter=0;strokeWidth=6;" edge="1" parent="1">
          <mxGeometry width="50" height="50" relative="1" as="geometry">
            <mxPoint x="883" y="8416.9" as="sourcePoint" />
            <mxPoint x="1170" y="8415.1" as="targetPoint" />
          </mxGeometry>
        </mxCell>
        <mxCell id="61rb47NGI_a2kLUwDJ28-175" value="dout_R_add[0:7][15:0]" style="text;html=1;align=center;verticalAlign=middle;whiteSpace=wrap;rounded=0;" vertex="1" parent="1">
          <mxGeometry x="1010" y="8374.9" width="150" height="30" as="geometry" />
        </mxCell>
        <mxCell id="61rb47NGI_a2kLUwDJ28-176" value="" style="endArrow=classic;html=1;rounded=0;entryX=0;entryY=0.078;entryDx=0;entryDy=0;entryPerimeter=0;exitX=1;exitY=0.265;exitDx=0;exitDy=0;exitPerimeter=0;strokeWidth=6;" edge="1" parent="1">
          <mxGeometry width="50" height="50" relative="1" as="geometry">
            <mxPoint x="880" y="8471.9" as="sourcePoint" />
            <mxPoint x="1170" y="8475.1" as="targetPoint" />
          </mxGeometry>
        </mxCell>
        <mxCell id="61rb47NGI_a2kLUwDJ28-177" value="dout_R_sub[0:7][15:0]" style="text;html=1;align=center;verticalAlign=middle;whiteSpace=wrap;rounded=0;" vertex="1" parent="1">
          <mxGeometry x="1010" y="8434.9" width="150" height="30" as="geometry" />
        </mxCell>
        <mxCell id="61rb47NGI_a2kLUwDJ28-178" value="" style="endArrow=classic;html=1;rounded=0;entryX=0;entryY=0.078;entryDx=0;entryDy=0;entryPerimeter=0;exitX=1.013;exitY=0.178;exitDx=0;exitDy=0;exitPerimeter=0;strokeWidth=6;" edge="1" parent="1">
          <mxGeometry width="50" height="50" relative="1" as="geometry">
            <mxPoint x="873" y="8596.8" as="sourcePoint" />
            <mxPoint x="1160" y="8595" as="targetPoint" />
          </mxGeometry>
        </mxCell>
        <mxCell id="61rb47NGI_a2kLUwDJ28-179" value="dout_Q_add[0:7][15:0]" style="text;html=1;align=center;verticalAlign=middle;whiteSpace=wrap;rounded=0;" vertex="1" parent="1">
          <mxGeometry x="1000" y="8554.8" width="150" height="30" as="geometry" />
        </mxCell>
        <mxCell id="61rb47NGI_a2kLUwDJ28-180" value="" style="endArrow=classic;html=1;rounded=0;entryX=0;entryY=0.078;entryDx=0;entryDy=0;entryPerimeter=0;exitX=1;exitY=0.265;exitDx=0;exitDy=0;exitPerimeter=0;strokeWidth=6;" edge="1" parent="1">
          <mxGeometry width="50" height="50" relative="1" as="geometry">
            <mxPoint x="870" y="8651.869999999999" as="sourcePoint" />
            <mxPoint x="1160" y="8655.07" as="targetPoint" />
          </mxGeometry>
        </mxCell>
        <mxCell id="61rb47NGI_a2kLUwDJ28-181" value="dout_Q_sub[0:7][15:0]" style="text;html=1;align=center;verticalAlign=middle;whiteSpace=wrap;rounded=0;" vertex="1" parent="1">
          <mxGeometry x="1000" y="8614.869999999999" width="150" height="30" as="geometry" />
        </mxCell>
        <mxCell id="61rb47NGI_a2kLUwDJ28-190" value="&lt;span style=&quot;font-size: 23px;&quot;&gt;BF2I&lt;/span&gt;" style="rounded=0;whiteSpace=wrap;html=1;fontSize=18;" vertex="1" parent="1">
          <mxGeometry x="640" y="9080.13" width="240" height="630" as="geometry" />
        </mxCell>
        <mxCell id="61rb47NGI_a2kLUwDJ28-191" value="MUL_FAC8_2" style="rounded=0;whiteSpace=wrap;html=1;fontSize=18;" vertex="1" parent="1">
          <mxGeometry x="1170" y="9080" width="214" height="620" as="geometry" />
        </mxCell>
        <mxCell id="61rb47NGI_a2kLUwDJ28-192" value="" style="endArrow=classic;html=1;rounded=0;entryX=0;entryY=0.078;entryDx=0;entryDy=0;entryPerimeter=0;exitX=1.013;exitY=0.178;exitDx=0;exitDy=0;exitPerimeter=0;strokeWidth=6;" edge="1" parent="1">
          <mxGeometry width="50" height="50" relative="1" as="geometry">
            <mxPoint x="883" y="9207.029999999999" as="sourcePoint" />
            <mxPoint x="1170" y="9205.23" as="targetPoint" />
          </mxGeometry>
        </mxCell>
        <mxCell id="61rb47NGI_a2kLUwDJ28-193" value="dout_R_add[0:7][15:0]" style="text;html=1;align=center;verticalAlign=middle;whiteSpace=wrap;rounded=0;" vertex="1" parent="1">
          <mxGeometry x="1010" y="9165.029999999999" width="150" height="30" as="geometry" />
        </mxCell>
        <mxCell id="61rb47NGI_a2kLUwDJ28-194" value="" style="endArrow=classic;html=1;rounded=0;entryX=0;entryY=0.078;entryDx=0;entryDy=0;entryPerimeter=0;exitX=1;exitY=0.265;exitDx=0;exitDy=0;exitPerimeter=0;strokeWidth=6;" edge="1" parent="1">
          <mxGeometry width="50" height="50" relative="1" as="geometry">
            <mxPoint x="880" y="9262.029999999999" as="sourcePoint" />
            <mxPoint x="1170" y="9265.23" as="targetPoint" />
          </mxGeometry>
        </mxCell>
        <mxCell id="61rb47NGI_a2kLUwDJ28-195" value="dout_R_sub[0:7][15:0]" style="text;html=1;align=center;verticalAlign=middle;whiteSpace=wrap;rounded=0;" vertex="1" parent="1">
          <mxGeometry x="1010" y="9225.029999999999" width="150" height="30" as="geometry" />
        </mxCell>
        <mxCell id="61rb47NGI_a2kLUwDJ28-196" value="" style="endArrow=classic;html=1;rounded=0;entryX=0;entryY=0.078;entryDx=0;entryDy=0;entryPerimeter=0;exitX=1.013;exitY=0.178;exitDx=0;exitDy=0;exitPerimeter=0;strokeWidth=6;" edge="1" parent="1">
          <mxGeometry width="50" height="50" relative="1" as="geometry">
            <mxPoint x="873" y="9386.929999999998" as="sourcePoint" />
            <mxPoint x="1160" y="9385.13" as="targetPoint" />
          </mxGeometry>
        </mxCell>
        <mxCell id="61rb47NGI_a2kLUwDJ28-197" value="dout_Q_add[0:7][15:0]" style="text;html=1;align=center;verticalAlign=middle;whiteSpace=wrap;rounded=0;" vertex="1" parent="1">
          <mxGeometry x="1000" y="9344.929999999998" width="150" height="30" as="geometry" />
        </mxCell>
        <mxCell id="61rb47NGI_a2kLUwDJ28-198" value="" style="endArrow=classic;html=1;rounded=0;entryX=0;entryY=0.078;entryDx=0;entryDy=0;entryPerimeter=0;exitX=1;exitY=0.265;exitDx=0;exitDy=0;exitPerimeter=0;strokeWidth=6;" edge="1" parent="1">
          <mxGeometry width="50" height="50" relative="1" as="geometry">
            <mxPoint x="870" y="9441.999999999998" as="sourcePoint" />
            <mxPoint x="1160" y="9445.199999999999" as="targetPoint" />
          </mxGeometry>
        </mxCell>
        <mxCell id="61rb47NGI_a2kLUwDJ28-199" value="dout_Q_sub[0:7][15:0]" style="text;html=1;align=center;verticalAlign=middle;whiteSpace=wrap;rounded=0;" vertex="1" parent="1">
          <mxGeometry x="1000" y="9404.999999999998" width="150" height="30" as="geometry" />
        </mxCell>
        <mxCell id="61rb47NGI_a2kLUwDJ28-200" value="&lt;font style=&quot;font-size: 23px;&quot;&gt;16IN_덧셈부&lt;/font&gt;" style="text;html=1;align=center;verticalAlign=middle;whiteSpace=wrap;rounded=0;" vertex="1" parent="1">
          <mxGeometry x="70" y="8364.93" width="140" height="275.07" as="geometry" />
        </mxCell>
        <mxCell id="61rb47NGI_a2kLUwDJ28-201" value="&lt;font style=&quot;font-size: 23px;&quot;&gt;16IN_뺄셈부&lt;/font&gt;" style="text;html=1;align=center;verticalAlign=middle;whiteSpace=wrap;rounded=0;" vertex="1" parent="1">
          <mxGeometry x="90" y="9069.86" width="140" height="275.07" as="geometry" />
        </mxCell>
        <mxCell id="61rb47NGI_a2kLUwDJ28-202" value="TWF_GEN&lt;div&gt;&lt;br&gt;&lt;/div&gt;&lt;div&gt;16개&lt;/div&gt;" style="rounded=0;whiteSpace=wrap;html=1;fontSize=18;" vertex="1" parent="1">
          <mxGeometry x="1202" y="8700" width="150" height="155" as="geometry" />
        </mxCell>
        <mxCell id="61rb47NGI_a2kLUwDJ28-203" value="TWF_GEN&lt;div&gt;&lt;br&gt;&lt;/div&gt;&lt;div&gt;16개&lt;/div&gt;" style="rounded=0;whiteSpace=wrap;html=1;fontSize=18;" vertex="1" parent="1">
          <mxGeometry x="1210" y="9500" width="150" height="155" as="geometry" />
        </mxCell>
      </root>
    </mxGraphModel>
  </diagram>
</mxfile>
